<?xml version="1.0" encoding="UTF-8" standalone="no"?>
<!-- Created with Inkscape (http://www.inkscape.org/) -->

<svg
   width="512.28961mm"
   height="110.93179mm"
   viewBox="0 0 512.28961 110.93179"
   version="1.1"
   id="svg1"
   inkscape:version="1.3.2 (091e20e, 2023-11-25, custom)"
   sodipodi:docname="Noritake Displace case_V4A.svg"
   xmlns:inkscape="http://www.inkscape.org/namespaces/inkscape"
   xmlns:sodipodi="http://sodipodi.sourceforge.net/DTD/sodipodi-0.dtd"
   xmlns="http://www.w3.org/2000/svg"
   xmlns:svg="http://www.w3.org/2000/svg">
  <sodipodi:namedview
     id="namedview1"
     pagecolor="#ffffff"
     bordercolor="#000000"
     borderopacity="0.25"
     inkscape:showpageshadow="2"
     inkscape:pageopacity="0.0"
     inkscape:pagecheckerboard="0"
     inkscape:deskcolor="#d1d1d1"
     inkscape:document-units="mm"
     inkscape:zoom="2.0938813"
     inkscape:cx="394.00513"
     inkscape:cy="82.382892"
     inkscape:window-width="1920"
     inkscape:window-height="1147"
     inkscape:window-x="1912"
     inkscape:window-y="-8"
     inkscape:window-maximized="1"
     inkscape:current-layer="layer1" />
  <defs
     id="defs1" />
  <g
     inkscape:label="Layer 1"
     inkscape:groupmode="layer"
     id="layer1"
     transform="translate(139.40288,-737.18967)">
    <g
       id="g51"
       transform="translate(-106.89151,147.20794)">
      <g
         id="g48"
         style="fill:none;stroke:#ff0000;stroke-linecap:round;stroke-linejoin:round"
         transform="rotate(180,138.58654,355.15071)">
        <path
           d="m 184.9,62 h -9.45 c -0.05,0 0,-0.05 0,0 v 3.05 c 0,0.028 -0.022,0.05 -0.05,0.05 h -6.2 c -0.028,0 -0.05,-0.022 -0.05,-0.05 V 62 c 0,-0.05 0.05,0 0,0 h -6.1 c -0.05,0 0,-0.05 0,0 v 3.05 c 0,0.028 -0.022,0.05 -0.05,0.05 h -6.2 c -0.028,0 -0.05,-0.022 -0.05,-0.05 V 62 c 0,-0.05 0.05,0 0,0 h -6.1 c -0.05,0 0,-0.05 0,0 v 3.05 c 0,0.028 -0.022,0.05 -0.05,0.05 h -6.2 c -0.028,0 -0.05,-0.022 -0.05,-0.05 V 62 c 0,-0.05 0.05,0 0,0 h -9.45 c -4.292,0 -8.508,-1.13 -12.225,-3.276 -3.717,-2.146 -6.803,-5.232 -8.949,-8.949 -2.146,-3.717 -3.276,-7.933 -3.276,-12.225 0,-4.292 1.13,-8.508 3.276,-12.225 2.146,-3.717 5.232,-6.803 8.949,-8.949 3.717,-2.146 7.933,-3.276 12.225,-3.276 -0.028,0 -0.05,0.022 -0.05,0.05 v -3.1 c 0,-0.028 0.022,-0.05 0.05,-0.05 h 12.4 c 0.028,0 0.05,0.022 0.05,0.05 v 3.05 c 0,0.05 -0.05,0 0,0 h 12.35 9.45 c 0.05,0 0,0.05 0,0 v -3.05 c 0,-0.028 0.022,-0.05 0.05,-0.05 h 6.2 c 0.028,0 0.05,0.022 0.05,0.05 v 3.05 c 0,0.05 -0.05,0 0,0 h 9.45 c 4.292,0 8.508,1.13 12.225,3.276 3.717,2.146 6.803,5.232 8.949,8.949 2.146,3.717 3.276,7.933 3.276,12.225 0,4.292 -1.13,8.508 -3.276,12.225 -2.146,3.717 -5.232,6.803 -8.949,8.949 C 193.408,60.87 189.192,62 184.9,62 Z"
           stroke="#000000"
           stroke-width="0.1"
           id="path45"
           style="fill:none;stroke:#ff0000" />
      </g>
      <path
         id="path48"
         style="color:#000000;fill:none;stroke:#ff0000;stroke-width:0.1;stroke-linecap:butt;stroke-linejoin:miter;stroke-dasharray:none"
         d="m 142.16324,691.42081 c 3.27629,0 6.49432,-0.86251 9.33431,-2.50217 2.84004,-1.63969 5.1952,-3.99417 6.83369,-6.83214 0.80028,-1.38612 1.41218,-2.86444 1.83193,-4.39508 h -2.62206 v -9.8795 h 2.62206 c -0.4197,-1.53037 -1.03128,-3.00832 -1.83193,-4.39508 -1.63893,-2.83873 -3.99496,-5.19528 -6.83369,-6.83421 -2.83867,-1.6389 -6.05627,-2.50011 -9.33431,-2.50011 h -20.06131 v 2.98638 h -9.8795 v -2.98638 H 92.16319 c -3.27808,0 -6.49796,0.86165 -9.33587,2.50011 -2.83794,1.63849 -5.19244,3.99417 -6.83214,6.83421 -0.79466,1.3764 -1.40235,2.84241 -1.82211,4.35994 h 2.63292 v 9.98233 h -2.62258 c 0.41947,1.50606 1.02322,2.96156 1.81177,4.32739 1.63927,2.83928 3.99288,5.19288 6.83214,6.83214 2.80082,1.61704 5.97435,2.46325 9.20513,2.48615 0.023,-0.01 0.0451,-0.021 0.0682,-0.031 0.006,-0.003 0.0126,-0.004 0.0196,-0.004 0,0 12.30176,0.0108 20.10213,0.0207 v -2.79931 h 9.8795 v 2.80913 c 8.92985,0.01 14.24137,0.0207 20.06131,0.0207 z"
         sodipodi:nodetypes="cssccccsssccccsssccccssccccccccc" />
      <circle
         style="fill:none;stroke:#ff0000;stroke-width:0.1;stroke-dasharray:none"
         id="circle48"
         cx="-160.84908"
         cy="-672.76953"
         r="1.225652"
         transform="scale(-1)" />
      <circle
         style="fill:none;stroke:#ff0000;stroke-width:0.1;stroke-dasharray:none"
         id="circle49"
         cx="-117.10135"
         cy="-653.43097"
         r="1.225652"
         transform="scale(-1)" />
      <circle
         style="fill:none;stroke:#ff0000;stroke-width:0.1;stroke-dasharray:none"
         id="circle50"
         cx="-73.38018"
         cy="-672.76953"
         r="1.225652"
         transform="scale(-1)" />
      <circle
         style="fill:none;stroke:#ff0000;stroke-width:0.1;stroke-dasharray:none"
         id="circle51"
         cx="-117.10135"
         cy="-692.22784"
         r="1.225652"
         transform="scale(-1)" />
    </g>
    <path
       id="path78"
       style="fill:none;stroke:#ff0000;stroke-width:0.1;stroke-linecap:round;stroke-linejoin:round;stroke-dasharray:none"
       d="m 303.53433,737.28948 h -12.92014 c 0,-0.028 -0.0231,-0.0496 -0.0501,-0.0496 H 213.90931 163.90926 87.253986 77.754307 c -0.028,0 -0.05013,0.0216 -0.05013,0.0496 h -6.099886 c 0,-0.028 -0.02213,-0.0496 -0.05013,-0.0496 h -9.500196 c -0.028,0 -0.05013,0.0216 -0.05013,0.0496 v 83.42863 c 0,0.028 0.02213,0.0501 0.05013,0.0501 h 9.498646 6.111771 9.589596 l 76.655272,27.30325 h 50.00005 l 76.65476,-27.39058 c 0.0259,-0.007 0.0501,-0.0216 0.0501,-0.0496 h 12.92014 11.8802 v -83.34182 z"
       sodipodi:nodetypes="ccscccsccsssssccccccccccc" />
    <path
       d="m 89.156091,822.23084 v -4.57087 m 0,-7.33729 v -69.98301 m 1.55,-3.1 v 31.7795 m 0,7.8625 v 43.06265 m 1.55,3.1 v -5.38435 m 0,-7.33729 v -69.98301 m 1.55,-3.1 v 31.7795 m 0,7.8625 v 44.0578 m 1.55,3.1 v -6.3795 m 0,-7.33729 v -69.98301 m 1.55,-3.1 v 31.7795 m 0,7.8625 v 45.11614 m 1.55,3.1 v -7.43784 m 0,-7.33729 v -69.98301 m 1.549999,-3.1 v 31.7795 m 0,7.8625 v 46.11129 m 1.55,3.1 v -8.43299 m 0,-7.33729 v -69.98301 m 1.55,-3.1 v 31.7795 m 0,7.8625 v 46.76682 m 1.55,3.1 v -9.08852 m 0,-7.33729 v -69.98301 m 1.55,-3.1 v 31.7795 m 0,7.8625 v 47.76197 m 1.55,4.15833 v -11.142 m 0,-7.33729 v -69.98301 m 1.55,-3.1 v 31.7795 m 0,7.8625 v 48.8203 m 1.55001,4.15833 v -12.20033 m 0,-7.33729 v -69.98301 m 1.55,-3.1 v 31.7795 m 0,7.8625 v 49.75228 m 1.55,4.15833 v -13.13231 m 0,-7.33729 v -69.98301 m 1.55,-3.1 v 31.7795 m 0,7.8625 v 50.4078 m 1.55,4.6875 v -14.317 m 0,-7.33729 v -69.98301 m 1.55,-3.1 v 31.7795 m 0,7.8625 v 51.46614 m 1.55,4.6875 v -15.37534 m 0,-7.33729 v -69.98301 m 1.55,-3.1 v 31.7795 m 0,7.8625 v 52.33493 m 1.55,5.21667 v -16.7733 m 0,-7.33729 v -69.98301 m 1.55,-3.1 v 31.7795 m 0,7.8625 v 53.05364 m 1.55,5.21667 v -17.49201 m 0,-7.33729 v -69.98301 m 1.55,-3.1 v 31.7795 m 0,7.8625 v 53.99361 m 1.55,5.74584 v -18.96115 m 0,-7.33729 v -69.98301 m 1.55,-3.1 v 31.7795 m 0,7.8625 v 54.89386 m 1.55,5.74583 v -19.86139 m 0,-7.33729 v -69.98301 m 1.55,-3.1 v 31.7795 m 0,7.8625 v 55.76265 m 1.55,5.74583 v -20.73018 m 0,-7.33729 v -69.98301 m 1.55,-3.1 v 31.7795 m 0,7.8625 v 56.7578 m 1.55,5.74583 v -21.72533 m 0,-7.33729 v -69.98301 m 1.55,-3.1 v 31.7795 m 0,7.8625 v 57.66605 m 1.55,6.275 v -23.16275 m 0,-7.33729 v -69.98301 m 1.55,-3.1 v 31.7795 m 0,7.8625 v 58.47166 m 1.55,6.80417 v -24.49753 m 0,-7.33729 v -69.98301 m 1.55,-3.1 v 31.7795 m 0,7.8625 v 59.49054 m 1.55,6.80417 v -25.51641 m 0,-7.33729 v -69.98301 m 1.55,-3.1 v 31.7795 m 0,7.8625 v 60.33561 m 1.55,6.80417 v -26.36148 m 0,-7.33729 v -69.98301 m 1.55,-3.1 v 31.7795 m 0,7.8625 v 61.1175 m 1.55,7.33333 v -27.67253 m 0,-7.33729 v -69.98301 m 1.55,-3.1 v 31.7795 m 0,7.8625 v 62.04947 m 1.55,7.33333 v -28.6045 m 0,-7.33729 v -69.98301 m 1.55,-3.1 v 31.7795 m 0,7.8625 v 63.1078 m 1.55,7.8625 v -30.192 m 0,-7.33729 v -69.98301 m 1.55,-3.1 v 31.7795 m 0,7.8625 v 63.63697"
       stroke="#000000"
       stroke-width="0.1"
       id="path79"
       sodipodi:nodetypes="cccccccccccccccccccccccccccccccccccccccccccccccccccccccccccccccccccccccccccccccccccccccccccccccccccccccccccccccccccccccccccccccccccccccccccccccccccccccccccccccccccccccccccccccccccccccccccccccc"
       style="fill:none;stroke:#ff0000;stroke-linecap:round;stroke-linejoin:round" />
    <path
       id="path80"
       style="fill:none;stroke:#ff0000;stroke-width:0.0961498"
       d="m 185.8535,740.4663 h 6.10442 v 3.13385 h -6.10442 z" />
    <g
       id="g87"
       transform="translate(-284.60826,252.76503)"
       style="fill:none;stroke:#ff0000">
      <rect
         style="fill:none;stroke:#ff0000;stroke-width:0.0961498;stroke-dasharray:none"
         id="rect84"
         width="6.1044235"
         height="3.1338501"
         x="458.06979"
         y="487.70123"
         ry="0" />
      <rect
         style="fill:none;stroke:#ff0000;stroke-width:0.0961498;stroke-dasharray:none"
         id="rect85"
         width="6.1044235"
         height="3.1338501"
         x="482.86963"
         y="487.70123"
         ry="0" />
      <rect
         style="fill:none;stroke:#ff0000;stroke-width:0.100255;stroke-dasharray:none"
         id="rect86"
         width="12.957613"
         height="3.3751264"
         x="575.20367"
         y="487.39767"
         ry="0" />
      <rect
         style="fill:none;stroke:#ff0000;stroke-width:0.0962713;stroke-dasharray:none"
         id="rect87"
         width="6.1200972"
         height="3.1337285"
         x="356.20129"
         y="487.70129"
         ry="0" />
    </g>
    <path
       d="m 288.75346,822.23084 v -4.57087 m 0,-7.33729 v -69.98301 m -1.55,-3.1 v 32.83783 m 0,6.80417 v 43.06265 m -1.55,3.1 v -5.38435 m 0,-7.33729 v -69.98301 m -1.55,-3.1 v 32.83783 m 0,6.80417 v 44.0578 m -1.55,3.1 v -6.3795 m 0,-7.33729 v -69.98301 m -1.55,-3.1 v 32.83783 m 0,6.80417 v 45.11614 m -1.55,3.1 v -7.43784 m 0,-7.33729 v -69.98301 m -1.55,-3.1 v 32.83783 m 0,6.80417 v 46.11129 m -1.55,3.1 v -8.43299 m 0,-7.33729 v -69.98301 m -1.55,-3.1 v 32.83783 m 0,6.80417 v 46.76682 m -1.55,3.1 v -9.08852 m 0,-7.33729 v -69.98301 m -1.55,-3.1 v 32.83783 m 0,6.80417 v 47.76197 m -1.55,4.15833 v -11.142 m 0,-7.33729 v -69.98301 m -1.55,-3.1 v 32.83783 m 0,6.80417 v 48.8203 m -1.55,4.15833 v -12.20033 m 0,-7.33729 v -69.98301 m -1.55,-3.1 v 32.83783 m 0,6.80417 v 49.75228 m -1.55,4.15833 v -13.13231 m 0,-7.33729 v -69.98301 m -1.55,-3.1 v 32.83783 m 0,6.80417 v 50.4078 m -1.55,4.6875 v -14.317 m 0,-7.33729 v -69.98301 m -1.55,-3.1 v 32.83783 m 0,6.80417 v 51.46614 m -1.55,4.6875 v -15.37534 m 0,-7.33729 v -69.98301 m -1.55,-3.1 v 32.83783 m 0,6.80417 v 52.33493 m -1.55,5.21667 v -16.7733 m 0,-7.33729 v -69.98301 m -1.55,-3.1 v 32.83783 m 0,6.80417 v 53.05364 m -1.55,5.21667 v -17.49201 m 0,-7.33729 v -69.98301 m -1.55,-3.1 v 32.83783 m 0,6.80417 v 53.99361 m -1.55,5.74584 v -18.96115 m 0,-7.33729 v -69.98301 m -1.55,-3.1 v 32.83783 m 0,6.80417 v 54.89386 m -1.55,5.74583 v -19.86139 m 0,-7.33729 v -69.98301 m -1.55,-3.1 v 32.83783 m 0,6.80417 v 55.76265 m -1.55,5.74583 v -20.73018 m 0,-7.33729 v -69.98301 m -1.55,-3.1 v 32.83783 m 0,6.80417 v 56.7578 m -1.55,5.74583 v -21.72533 m 0,-7.33729 v -69.98301 m -1.55,-3.1 v 32.83783 m 0,6.80417 v 57.66605 m -1.55001,6.275 v -23.16275 m 0,-7.33729 v -69.98301 m -1.55,-3.1 v 32.83783 m 0,6.80417 v 58.47166 m -1.55,6.80417 v -24.49753 m 0,-7.33729 v -69.98301 m -1.55,-3.1 v 32.83783 m 0,6.80417 v 59.49054 m -1.55,6.80417 v -25.51641 m 0,-7.33729 v -69.98301 m -1.55,-3.1 v 32.83783 m 0,6.80417 v 60.33561 m -1.55,6.80417 v -26.36148 m 0,-7.33729 v -69.98301 m -1.55,-3.1 v 32.83783 m 0,6.80417 v 61.1175 m -1.55,7.33333 v -27.67253 m 0,-7.33729 v -69.98301 m -1.55,-3.1 v 32.83783 m 0,6.80417 v 62.04947 m -1.55001,7.33333 v -28.6045 m 0,-7.33729 v -69.98301 m -1.55,-3.1 v 32.83783 m 0,6.80417 v 63.1078 m -1.55,7.8625 v -30.192 m 0,-7.33729 v -69.98301 m -1.55,-3.1 v 32.83783 m 0,6.80417 v 63.63697"
       stroke="#000000"
       stroke-width="0.1"
       id="path89"
       sodipodi:nodetypes="cccccccccccccccccccccccccccccccccccccccccccccccccccccccccccccccccccccccccccccccccccccccccccccccccccccccccccccccccccccccccccccccccccccccccccccccccccccccccccccccccccccccccccccccccccccccccccccccc"
       style="fill:none;stroke:#ff0000;stroke-linecap:round;stroke-linejoin:round" />
    <g
       id="g97"
       transform="translate(0,-3.4430507)">
      <rect
         style="fill:none;stroke:#ff0000;stroke-width:0.0961498;stroke-dasharray:none"
         id="rect92"
         width="6.1044235"
         height="3.1338501"
         x="173.42992"
         y="814.19495"
         ry="0" />
      <rect
         style="fill:none;stroke:#ff0000;stroke-width:0.0961498;stroke-dasharray:none"
         id="rect93"
         width="6.1044235"
         height="3.1338501"
         x="185.82188"
         y="814.19495"
         ry="0" />
      <rect
         style="fill:none;stroke:#ff0000;stroke-width:0.0961498;stroke-dasharray:none"
         id="rect94"
         width="6.1044235"
         height="3.1338501"
         x="198.22975"
         y="814.19495"
         ry="0" />
      <g
         id="g96"
         transform="translate(15.830325,264.25532)"
         style="fill:none;stroke:#ff0000">
        <rect
           style="fill:none;stroke:#ff0000;stroke-width:0.100255;stroke-dasharray:none"
           id="rect95"
           width="12.957613"
           height="3.3751264"
           x="274.7204"
           y="549.6626"
           ry="0" />
        <rect
           style="fill:none;stroke:#ff0000;stroke-width:0.0962713;stroke-dasharray:none"
           id="rect96"
           width="6.1200972"
           height="3.1337285"
           x="55.718025"
           y="549.96625"
           ry="0" />
      </g>
    </g>
    <g
       id="g132"
       transform="translate(-205.12785,567.40411)">
      <rect
         style="fill:none;stroke:#ff0000;stroke-width:0.0956383"
         id="rect97"
         width="78.904358"
         height="23.904362"
         x="76.151695"
         y="241.00099" />
      <circle
         style="fill:none;stroke:#ff0000;stroke-width:0.1;stroke-dasharray:none"
         id="circle97"
         cx="78.109062"
         cy="237.4574"
         r="1.225652" />
      <circle
         style="fill:none;stroke:#ff0000;stroke-width:0.1;stroke-dasharray:none"
         id="circle98"
         cx="78.109062"
         cy="268.45712"
         r="1.225652" />
      <circle
         style="fill:none;stroke:#ff0000;stroke-width:0.1;stroke-dasharray:none"
         id="circle99"
         cx="153.09435"
         cy="237.4574"
         r="1.225652" />
      <circle
         style="fill:none;stroke:#ff0000;stroke-width:0.1;stroke-dasharray:none"
         id="circle100"
         cx="153.09435"
         cy="268.45712"
         r="1.225652" />
      <g
         id="g127"
         style="fill:none;stroke:#ff0000;stroke-linecap:round;stroke-linejoin:round"
         transform="translate(56.153875,215.40318)">
        <path
           d="m 34.45,62 h 9.45 c 0.05,0 0,-0.05 0,0 v 3.05 c 0,0.028 0.022,0.05 0.05,0.05 h 6.2 c 0.028,0 0.05,-0.022 0.05,-0.05 V 62 c 0,-0.05 -0.05,0 0,0 h 6.1 c 0.05,0 0,-0.05 0,0 v 3.05 c 0,0.028 0.022,0.05 0.05,0.05 h 6.2 c 0.028,0 0.05,-0.022 0.05,-0.05 V 62 c 0,-0.05 -0.05,0 0,0 h 6.1 c 0.05,0 0,-0.05 0,0 v 3.05 c 0,0.028 0.022,0.05 0.05,0.05 h 6.2 C 74.978,65.1 75,65.078 75,65.05 V 62 c 0,-0.05 -0.05,0 0,0 h 9.45 c 4.292,0 8.508,-1.13 12.225,-3.276 3.717,-2.146 6.803,-5.232 8.949,-8.949 2.146,-3.717 3.276,-7.933 3.276,-12.225 0,-4.292 -1.13,-8.508 -3.276,-12.225 -2.146,-3.717 -5.232,-6.803 -8.949,-8.949 C 92.958,14.23 88.742,13.1 84.45,13.1 c 0.028,0 0.05,0.022 0.05,0.05 v -3.1 C 84.5,10.022 84.478,10 84.45,10 H 72.05 C 72.022,10 72,10.022 72,10.05 v 3.05 c 0,0.05 0.05,0 0,0 H 59.65 50.2 c -0.05,0 0,0.05 0,0 V 10.05 C 50.2,10.022 50.178,10 50.15,10 h -6.2 c -0.028,0 -0.05,0.022 -0.05,0.05 v 3.05 c 0,0.05 0.05,0 0,0 h -9.45 c -4.292,0 -8.508,1.13 -12.225,3.276 -3.717,2.146 -6.803,5.232 -8.949,8.949 C 11.13,29.042 10,33.258 10,37.55 c 0,4.292 1.13,8.508 3.276,12.225 2.146,3.717 5.232,6.803 8.949,8.949 C 25.942,60.87 30.158,62 34.45,62 Z"
           stroke="#000000"
           stroke-width="0.1"
           id="path127"
           style="stroke:#ff0000" />
      </g>
    </g>
    <g
       id="g17"
       transform="translate(-9.0660381,97.516999)"
       style="fill:none;stroke:#ff0000">
      <g
         id="g13"
         transform="translate(37.059187,68.769466)"
         style="fill:none;stroke:#ff0000">
        <circle
           style="fill:none;stroke:#ff0000;stroke-width:0.1;stroke-dasharray:none"
           id="circle10"
           cx="80.403389"
           cy="-615.92633"
           r="1.225652"
           transform="scale(-1)" />
        <circle
           style="fill:none;stroke:#ff0000;stroke-width:0.1;stroke-dasharray:none"
           id="circle11"
           cx="80.403389"
           cy="-584.92664"
           r="1.225652"
           transform="scale(-1)" />
        <circle
           style="fill:none;stroke:#ff0000;stroke-width:0.1;stroke-dasharray:none"
           id="circle12"
           cx="155.38867"
           cy="-615.92633"
           r="1.225652"
           transform="scale(-1)" />
        <circle
           style="fill:none;stroke:#ff0000;stroke-width:0.1;stroke-dasharray:none"
           id="circle13"
           cx="155.38867"
           cy="-584.92664"
           r="1.225652"
           transform="scale(-1)" />
      </g>
      <g
         id="g16"
         style="fill:none;stroke:#ff0000">
        <g
           id="g14"
           style="fill:none;stroke:#ff0000;stroke-linecap:round;stroke-linejoin:round"
           transform="translate(-140.28684,631.64595)">
          <path
             d="m 34.45,62 h 50 c 4.292,0 8.508,-1.13 12.225,-3.276 3.717,-2.146 6.803,-5.232 8.949,-8.949 2.146,-3.717 3.276,-7.933 3.276,-12.225 0,-4.292 -1.13,-8.508 -3.276,-12.225 -2.146,-3.717 -5.232,-6.803 -8.949,-8.949 C 92.958,14.23 88.742,13.1 84.45,13.1 h -50 c -4.292,0 -8.508,1.13 -12.225,3.276 -3.717,2.146 -6.803,5.232 -8.949,8.949 C 11.13,29.042 10,33.258 10,37.55 c 0,4.292 1.13,8.508 3.276,12.225 2.146,3.717 5.232,6.803 8.949,8.949 C 25.942,60.87 30.158,62 34.45,62 Z"
             stroke="#000000"
             stroke-width="0.1"
             id="path13"
             sodipodi:nodetypes="sssssssccssssss"
             style="fill:none;stroke:#ff0000" />
        </g>
        <rect
           style="fill:none;stroke:#ff0000;stroke-width:0.0663262"
           id="rect16"
           width="56.933674"
           height="15.933674"
           x="-109.30368"
           y="660.38446" />
      </g>
    </g>
    <path
       d="m -112.20012,777.98152 0.31006,-0.0331 q 0.0248,0.25011 0.11162,0.39067 0.0889,0.1385 0.25218,0.22325 0.1633,0.0847 0.36794,0.0847 0.29352,0 0.45475,-0.14262 0.1633,-0.1447 0.1633,-0.37414 0,-0.13436 -0.0599,-0.23358 -0.0579,-0.10128 -0.17777,-0.16536 -0.11782,-0.0641 -0.51263,-0.17983 -0.3514,-0.10336 -0.50023,-0.20878 -0.14883,-0.10542 -0.23151,-0.26665 -0.0827,-0.16329 -0.0827,-0.36793 0,-0.36794 0.23771,-0.60152 0.23771,-0.23357 0.64079,-0.23357 0.27698,0 0.48369,0.10955 0.20877,0.10955 0.32246,0.31419 0.11575,0.20464 0.12402,0.48163 l -0.31626,0.0289 q -0.0248,-0.29559 -0.17776,-0.43822 -0.1509,-0.14263 -0.42582,-0.14263 -0.27905,0 -0.42581,0.12609 -0.14676,0.12403 -0.14676,0.32246 0,0.18397 0.10748,0.28526 0.10749,0.10128 0.4837,0.20464 0.36793,0.10128 0.51676,0.1757 0.22738,0.11575 0.34313,0.30592 0.11576,0.1881 0.11576,0.45062 0,0.26045 -0.12196,0.47542 -0.12196,0.21291 -0.3328,0.32453 -0.20877,0.11162 -0.50436,0.11162 -0.46095,0 -0.73587,-0.27699 -0.27285,-0.27698 -0.28319,-0.75034 z m 2.38125,1.81488 v -3.03651 h 0.27905 v 0.28526 q 0.10336,-0.17777 0.22945,-0.25632 0.12609,-0.0786 0.28939,-0.0786 0.2129,0 0.38447,0.12609 0.17156,0.12609 0.27492,0.38448 0.10542,0.25631 0.10542,0.61805 0,0.56017 -0.23565,0.86403 -0.23358,0.30179 -0.54984,0.30179 -0.14055,0 -0.26251,-0.0724 -0.12196,-0.0723 -0.21084,-0.20464 v 1.06867 z m 0.27492,-1.9265 q 0,0.42582 0.14263,0.62839 0.14262,0.2005 0.3452,0.2005 0.1943,0 0.34106,-0.20877 0.14676,-0.20877 0.14676,-0.64492 0,-0.42995 -0.14263,-0.63666 -0.14262,-0.2067 -0.34726,-0.2067 -0.18397,0 -0.33486,0.22324 -0.1509,0.22118 -0.1509,0.64492 z m 2.88768,0.37827 0.31419,0.0476 q -0.0786,0.35139 -0.28525,0.53123 -0.20464,0.17777 -0.5085,0.17777 -0.38241,0 -0.62012,-0.28939 -0.23564,-0.29146 -0.23564,-0.83923 0,-0.56844 0.23771,-0.86609 0.23978,-0.29973 0.60565,-0.29973 0.34933,0 0.58291,0.29353 0.23357,0.29352 0.23357,0.84956 l -0.002,0.0992 h -1.34359 q 0.0186,0.37001 0.17157,0.55811 0.15296,0.1881 0.37207,0.1881 0.34313,0 0.47749,-0.45062 z m -1.00253,-0.60151 h 1.00459 q -0.0207,-0.28525 -0.12195,-0.42581 -0.14676,-0.20464 -0.37414,-0.20464 -0.20464,0 -0.34933,0.17156 -0.1447,0.1695 -0.15917,0.45889 z m 2.93316,0.60151 0.31419,0.0476 q -0.0785,0.35139 -0.28525,0.53123 -0.20464,0.17777 -0.5085,0.17777 -0.38241,0 -0.62012,-0.28939 -0.23564,-0.29146 -0.23564,-0.83923 0,-0.56844 0.23771,-0.86609 0.23978,-0.29973 0.60565,-0.29973 0.34933,0 0.58291,0.29353 0.23357,0.29352 0.23357,0.84956 l -0.002,0.0992 h -1.34359 q 0.0186,0.37001 0.17157,0.55811 0.15296,0.1881 0.37207,0.1881 0.34313,0 0.47749,-0.45062 z m -1.00252,-0.60151 h 1.00458 q -0.0207,-0.28525 -0.12195,-0.42581 -0.14676,-0.20464 -0.37414,-0.20464 -0.20464,0 -0.34933,0.17156 -0.1447,0.1695 -0.15916,0.45889 z m 2.86907,1.30845 v -0.27699 q -0.0827,0.15916 -0.21291,0.24391 -0.13022,0.0827 -0.28112,0.0827 -0.31832,0 -0.5519,-0.29973 -0.23151,-0.30179 -0.23151,-0.84749 0,-0.37414 0.10335,-0.63459 0.10335,-0.26045 0.27492,-0.38654 0.17363,-0.12609 0.38447,-0.12609 0.1509,0 0.27905,0.0806 0.13023,0.0785 0.21498,0.22117 v -1.08727 h 0.30592 v 3.03031 z m -0.96532,-1.09554 q 0,0.42581 0.14676,0.63252 0.14883,0.2067 0.3452,0.2067 0.19431,0 0.33693,-0.19844 0.14263,-0.19843 0.14263,-0.59944 0,-0.46096 -0.14263,-0.6718 -0.14262,-0.2129 -0.35967,-0.2129 -0.19223,0 -0.33072,0.20464 -0.1385,0.20257 -0.1385,0.63872 z"
       id="text17"
       style="font-stretch:condensed;font-size:4.23333px;font-family:Arial;-inkscape-font-specification:'Arial Condensed';text-align:center;text-anchor:middle;fill:none;stroke:#00ff00;stroke-width:0.1"
       aria-label="Speed" />
    <path
       d="m -92.019754,779.34988 0.95498,-3.0303 h 0.353467 l 1.016991,3.0303 h -0.376204 l -0.289388,-0.91777 h -1.037662 l -0.272851,0.91777 z m 0.717269,-1.24437 h 0.841291 l -0.258382,-0.83922 q -0.119889,-0.38654 -0.175699,-0.62839 -0.04754,0.29146 -0.134359,0.57878 z m 1.850014,1.24437 v -3.0303 h 0.328662 v 2.6727 h 1.223697 v 0.3576 z m 2.333706,0 v -2.6727 h -0.818554 v -0.3576 h 1.969904 v 0.3576 h -0.822688 v 2.6727 z"
       id="text26"
       style="font-stretch:condensed;font-size:4.23333px;font-family:Arial;-inkscape-font-specification:'Arial Condensed';text-align:center;text-anchor:middle;fill:none;stroke:#00ff00;stroke-width:0.1"
       aria-label="ALT" />
    <path
       d="m -67.667061,779.34988 -0.963248,-3.0303 h 0.355533 l 0.646989,2.20141 q 0.07441,0.25632 0.130224,0.4961 0.05788,-0.25012 0.132292,-0.4961 l 0.671793,-2.20141 h 0.334863 l -0.971516,3.0303 z m 1.595766,0 v -3.0303 h 0.857828 q 0.318327,0 0.483691,0.0558 0.217041,0.0724 0.376204,0.26458 0.159164,0.19224 0.248047,0.48576 0.08888,0.29145 0.08888,0.69246 0,0.5147 -0.150896,0.87437 -0.150895,0.3576 -0.388606,0.50849 -0.235644,0.14883 -0.61805,0.14883 z m 0.328662,-0.3576 h 0.529166 q 0.320394,0 0.485758,-0.10335 0.165365,-0.10542 0.254248,-0.33693 0.117822,-0.30799 0.117822,-0.73794 0,-0.46095 -0.12609,-0.72347 -0.124023,-0.26458 -0.320394,-0.35347 -0.132291,-0.0599 -0.419612,-0.0599 h -0.520898 z m 3.948076,-0.70487 0.330729,0.10129 q -0.109554,0.51056 -0.384472,0.76274 -0.272851,0.25012 -0.665592,0.25012 -0.345198,0 -0.591178,-0.16743 -0.243912,-0.1695 -0.401009,-0.54157 -0.155029,-0.37207 -0.155029,-0.8785 0,-0.50023 0.155029,-0.84543 0.157097,-0.34726 0.423747,-0.52296 0.26665,-0.17777 0.595312,-0.17777 0.359667,0 0.618049,0.22531 0.258382,0.22324 0.361735,0.65732 l -0.322461,0.093 q -0.165364,-0.63252 -0.663524,-0.63252 -0.248047,0 -0.429948,0.12816 -0.181901,0.12609 -0.291455,0.39481 -0.107487,0.26871 -0.107487,0.68006 0,0.62218 0.219108,0.93431 0.219108,0.31006 0.58291,0.31006 0.268717,0 0.46302,-0.19017 0.196371,-0.19224 0.262516,-0.58085 z"
       id="text27"
       style="font-stretch:condensed;font-size:4.23333px;font-family:Arial;-inkscape-font-specification:'Arial Condensed';text-align:center;text-anchor:middle;fill:none;stroke:#00ff00;stroke-width:0.1"
       aria-label="VDC" />
    <path
       d="m -91.626526,755.47409 v -3.03031 h 0.857828 q 0.318327,0 0.483691,0.0558 0.217041,0.0724 0.376204,0.26459 0.159163,0.19223 0.248047,0.48576 0.08888,0.29145 0.08888,0.69246 0,0.5147 -0.150895,0.87436 -0.150895,0.3576 -0.388606,0.5085 -0.235645,0.14883 -0.61805,0.14883 z m 0.328662,-0.3576 h 0.529166 q 0.320394,0 0.485758,-0.10336 0.165365,-0.10542 0.254248,-0.33693 0.117822,-0.30799 0.117822,-0.73793 0,-0.46096 -0.12609,-0.72347 -0.124024,-0.26459 -0.320394,-0.35347 -0.132291,-0.0599 -0.419612,-0.0599 h -0.520898 z m 2.246889,0.3576 v -3.03031 h 0.328662 v 3.03031 z m 0.901236,0 v -3.03031 h 1.101741 q 0.345198,0 0.508496,0.0847 0.165364,0.0847 0.270784,0.28319 0.10542,0.19637 0.10542,0.45682 0,0.34313 -0.179834,0.55604 -0.177767,0.2129 -0.518831,0.27078 0.138493,0.0827 0.21084,0.16743 0.146761,0.17364 0.258382,0.38654 l 0.434081,0.82476 h -0.413411 l -0.330729,-0.63045 q -0.192236,-0.37001 -0.291455,-0.49816 -0.09715,-0.12816 -0.190169,-0.17157 -0.09095,-0.0455 -0.256315,-0.0455 h -0.380338 v 1.34566 z m 0.328662,-1.69292 h 0.706933 q 0.23151,0 0.3514,-0.0558 0.119889,-0.0558 0.190169,-0.1757 0.07028,-0.11989 0.07028,-0.27905 0,-0.22945 -0.134359,-0.35967 -0.134359,-0.13229 -0.398942,-0.13229 h -0.785481 z"
       id="text32"
       style="font-stretch:condensed;font-size:4.23333px;font-family:Arial;-inkscape-font-specification:'Arial Condensed';text-align:center;text-anchor:middle;fill:none;stroke:#00ff00;stroke-width:0.1"
       inkscape:transform-center-x="0.50544092"
       aria-label="DIR" />
    <path
       d="m -70.044522,755.47409 v -2.6727 h -0.818554 v -0.35761 h 1.969904 v 0.35761 h -0.822688 v 2.6727 z m 1.490347,0 v -3.03031 h 1.796272 v 0.35761 h -1.46761 v 0.9281 h 1.374592 v 0.35554 h -1.374592 v 1.03146 h 1.525487 v 0.3576 z m 2.298566,0 v -3.03031 h 0.494026 l 0.589111,2.14561 0.117822,0.44855 q 0.04341,-0.16743 0.132292,-0.48576 l 0.595312,-2.1084 h 0.44235 v 3.03031 h -0.31626 v -2.53628 l -0.723469,2.53628 h -0.295589 l -0.719335,-2.57969 v 2.57969 z m 2.902146,0 v -3.03031 h 0.936376 q 0.330729,0 0.487825,0.0579 0.214974,0.0786 0.343132,0.29146 0.128157,0.2129 0.128157,0.52296 0,0.40928 -0.208772,0.66766 -0.208773,0.25838 -0.721403,0.25838 h -0.636653 v 1.23197 z m 0.328662,-1.58957 h 0.642854 q 0.303857,0 0.444417,-0.13642 0.14056,-0.1385 0.14056,-0.41548 0,-0.17984 -0.07028,-0.30799 -0.06821,-0.12816 -0.167431,-0.1757 -0.09715,-0.0475 -0.353467,-0.0475 h -0.636653 z"
       id="text29"
       style="font-stretch:condensed;font-size:4.23333px;font-family:Arial;-inkscape-font-specification:'Arial Condensed';text-align:center;text-anchor:middle;fill:none;stroke:#00ff00;stroke-width:0.1"
       aria-label="TEMP" />
    <g
       id="g142"
       transform="translate(105.79061,-117.22743)">
      <g
         id="g111"
         transform="translate(50.923172,20.470357)">
        <path
           id="rect77"
           style="fill:none;stroke:#ff0000;stroke-width:0.1;stroke-dasharray:none"
           d="m 161.67564,895.4337 v -54.44732 h 11.77448 v -3.09335 h 6.1035 v 3.09335 h 6.28592 v -3.09335 h 6.10299 v 3.09335 h 6.30246 v -3.09335 h 6.10299 v 3.09335 h 11.77499 v 54.44732 z" />
        <g
           id="g110"
           transform="translate(0.01725925)">
          <rect
             style="fill:none;stroke:#ff0000;stroke-width:0.0961498;stroke-dasharray:none"
             id="rect104"
             width="6.1044235"
             height="3.1338501"
             x="173.42992"
             y="884.83521"
             ry="0" />
          <rect
             style="fill:none;stroke:#ff0000;stroke-width:0.0961498;stroke-dasharray:none"
             id="rect106"
             width="6.1044235"
             height="3.1338501"
             x="198.22975"
             y="884.83521"
             ry="0" />
        </g>
      </g>
      <g
         id="g123"
         transform="translate(0.29709102)">
        <rect
           style="fill:none;stroke:#ff0000;stroke-width:0.1;stroke-dasharray:none"
           id="rect111"
           width="2.4919035"
           height="3.9919035"
           x="216.58359"
           y="865.71863"
           ry="1.2459518" />
        <rect
           style="fill:none;stroke:#ff0000;stroke-width:0.1;stroke-dasharray:none"
           id="rect112"
           width="2.4919035"
           height="3.9919035"
           x="238.80859"
           y="865.71863"
           ry="1.2459518" />
        <rect
           style="fill:none;stroke:#ff0000;stroke-width:0.1;stroke-dasharray:none"
           id="rect113"
           width="2.4919035"
           height="3.9919035"
           x="259.97528"
           y="865.71863"
           ry="1.2459518" />
      </g>
      <g
         id="g124"
         transform="translate(0.29709102)">
        <rect
           style="fill:none;stroke:#ff0000;stroke-width:0.1;stroke-dasharray:none"
           id="rect114"
           width="2.4919035"
           height="3.9919035"
           x="216.58359"
           y="878.94781"
           ry="1.2459518" />
        <rect
           style="fill:none;stroke:#ff0000;stroke-width:0.1;stroke-dasharray:none"
           id="rect115"
           width="2.4919035"
           height="3.9919035"
           x="238.80859"
           y="878.94781"
           ry="1.2459518" />
        <rect
           style="fill:none;stroke:#ff0000;stroke-width:0.1;stroke-dasharray:none"
           id="rect116"
           width="2.4919035"
           height="3.9919035"
           x="259.97528"
           y="878.94781"
           ry="1.2459518" />
      </g>
      <g
         id="g125"
         transform="translate(0.29709102)">
        <rect
           style="fill:none;stroke:#ff0000;stroke-width:0.1;stroke-dasharray:none"
           id="rect117"
           width="2.4919035"
           height="3.9919035"
           x="216.58359"
           y="892.70618"
           ry="1.2459518" />
        <rect
           style="fill:none;stroke:#ff0000;stroke-width:0.1;stroke-dasharray:none"
           id="rect118"
           width="2.4919035"
           height="3.9919035"
           x="238.80859"
           y="892.70618"
           ry="1.2459518" />
        <rect
           style="fill:none;stroke:#ff0000;stroke-width:0.1;stroke-dasharray:none"
           id="rect119"
           width="2.4919035"
           height="3.9919035"
           x="259.97528"
           y="892.70618"
           ry="1.2459518" />
      </g>
      <g
         id="g134"
         transform="translate(0.29709102)">
        <rect
           style="fill:none;stroke:#ff0000;stroke-width:0.1;stroke-dasharray:none"
           id="rect120"
           width="2.4919035"
           height="3.9919035"
           x="216.58359"
           y="908.05212"
           ry="1.2459518" />
        <rect
           style="fill:none;stroke:#ff0000;stroke-width:0.1;stroke-dasharray:none"
           id="rect121"
           width="2.4919035"
           height="3.9919035"
           x="238.80859"
           y="908.05212"
           ry="1.2459518" />
        <rect
           style="fill:none;stroke:#ff0000;stroke-width:0.1;stroke-dasharray:none"
           id="rect122"
           width="2.4919035"
           height="3.9919035"
           x="259.97528"
           y="908.05212"
           ry="1.2459518" />
      </g>
    </g>
    <g
       id="g101">
      <g
         id="g71"
         transform="translate(-0.13589,73.20575)">
        <ellipse
           style="fill:none;stroke:#ff0000;stroke-width:0.101492"
           id="ellipse67"
           cx="-33.534649"
           cy="692.46808"
           rx="1.6992539"
           ry="1.699254" />
        <ellipse
           style="fill:none;stroke:#ff0000;stroke-width:0.101492"
           id="ellipse68"
           cx="53.951599"
           cy="692.46808"
           rx="1.6992539"
           ry="1.699254" />
        <ellipse
           style="fill:none;stroke:#ff0000;stroke-width:0.101492"
           id="ellipse69"
           cx="10.20451"
           cy="711.75525"
           rx="1.6992539"
           ry="1.699254" />
        <ellipse
           style="fill:none;stroke:#ff0000;stroke-width:0.101492"
           id="ellipse70"
           cx="10.20451"
           cy="673.04688"
           rx="1.6992539"
           ry="1.699254" />
      </g>
      <g
         id="g50"
         style="fill:none;stroke:#ff0000;stroke-linecap:round;stroke-linejoin:round"
         transform="translate(-49.14238,727.88574)">
        <path
           d="m 34.45,62 h 50 c 4.292,0 8.508,-1.13 12.225,-3.276 3.717,-2.146 6.803,-5.232 8.949,-8.949 2.146,-3.717 3.276,-7.933 3.276,-12.225 0,-4.292 -1.13,-8.508 -3.276,-12.225 -2.146,-3.717 -5.232,-6.803 -8.949,-8.949 C 92.958,14.23 88.742,13.1 84.45,13.1 c 0.028,0 0.05,0.022 0.05,0.05 0,0 -35.518631,-0.05 -50.05,-0.05 -4.292,0 -8.508,1.13 -12.225,3.276 -3.717,2.146 -6.803,5.232 -8.949,8.949 C 11.13,29.042 10,33.258 10,37.55 c 0,4.292 1.13,8.508 3.276,12.225 2.146,3.717 5.232,6.803 8.949,8.949 C 25.942,60.87 30.158,62 34.45,62 Z"
           stroke="#000000"
           stroke-width="0.1"
           id="path46"
           sodipodi:nodetypes="sssssssccsssssss"
           style="fill:none;stroke:#ff0000" />
      </g>
      <g
         id="g56"
         transform="matrix(0.07787594,0,0,0.07927097,-22.91868,743.67118)"
         style="fill:none;stroke:#00ff00">
        <g
           id="g53"
           transform="rotate(22.242082,470.08226,-429.11294)"
           style="fill:none;stroke:#00ff00" />
        <g
           id="g55"
           transform="translate(-311.67927,-116.41668)"
           style="fill:none;stroke:#00ff00">
          <g
             id="g54"
             transform="matrix(1.4267318,-0.44363808,0.44363808,1.4267318,128.30734,-82.805283)"
             style="fill:none;stroke:#00ff00">
            <path
               id="path53"
               style="font-size:16.9333px;line-height:1.25;font-family:Candara;-inkscape-font-specification:Candara;letter-spacing:0px;word-spacing:0px;fill:none;stroke:#00ff00;stroke-width:0.264583"
               d="m 186.51273,301.73945 q 0.7294,1.33413 0.29466,2.9553 -0.32552,1.21388 -1.03619,1.72525 -0.71866,0.50923 -1.75685,0.23082 -1.30172,-0.34907 -1.70468,-1.65557 -0.40081,-1.3145 0.36975,-4.28375 -0.27893,-0.10904 -0.55844,-0.18399 -1.09409,-0.2934 -1.68439,0.21601 -0.59829,0.50727 -0.8874,1.58539 -0.34265,1.27777 -0.36216,2.65931 l -0.65896,-0.28799 q 2.3e-4,-1.30967 0.34288,-2.58744 0.37049,-1.38159 1.15322,-2.00204 0.77474,-0.6226 2.10043,-0.2671 0.43124,0.11565 1.24894,0.38628 0.81186,0.26052 1.62644,0.47895 1.17395,0.31481 2.53292,0.48235 l -0.13939,0.64745 q -0.51655,-0.0529 -0.86793,-0.14714 z m -3.26572,-0.90998 q -0.56537,2.10832 -0.4016,3.44485 0.15579,1.33438 1.43356,1.67703 1.42152,0.3812 1.92693,-1.50351 0.23128,-0.86249 0.15348,-1.59386 -0.0757,-0.73936 -0.47697,-1.3178 z m -3.52739,11.26582 q 1.56506,0.60643 2.84697,0.0213 1.28489,-0.5928 1.87339,-2.11161 0.1434,-0.37007 0.20719,-0.71777 0.0561,-0.35069 0.0841,-0.88073 l 0.5551,0.21509 q 0.0603,0.32486 -0.049,0.85885 -0.10638,0.52628 -0.26172,0.92718 -0.67812,1.7501 -2.14487,2.42318 -1.46375,0.66537 -3.11362,0.0261 -1.25668,-0.48693 -1.92773,-1.34105 -0.66805,-0.86182 -0.85127,-1.89934 -0.18795,-1.04822 0.28405,-2.26635 0.30769,-0.79409 0.70406,-1.19915 l 0.72018,0.4298 q -0.35907,0.44611 -0.57059,0.76317 -0.20854,0.30935 -0.34895,0.67171 -0.28678,0.74013 -0.14404,1.58462 0.14274,0.84449 0.68725,1.49883 0.53978,0.64365 1.44953,0.99615 z m 1.12588,5.36838 q -0.37228,-0.17979 -0.48751,-0.49254 -0.11909,-0.32378 0.0499,-0.67372 0.169,-0.34993 0.41985,-0.39406 0.25446,-0.0516 0.56717,0.0994 0.33504,0.16181 0.47287,0.50383 0.14142,0.33457 -0.0204,0.66962 -0.15821,0.3276 -0.43115,0.37942 -0.28038,0.0482 -0.57075,-0.092 z m -2.52507,9.48731 q -0.65331,-0.38964 -0.99954,-1.01973 -0.34624,-0.63009 -0.22781,-1.4259 l -0.0284,-0.0169 q -0.23207,0.17928 -0.55535,0.18864 -0.33038,0.005 -0.70674,-0.21934 -0.6391,-0.38116 -0.77769,-1.311 l -0.0142,-0.008 q -0.31841,0.24332 -1.00457,0.29618 -0.68904,0.0415 -1.36365,-0.36083 -1.04387,-0.62257 -1.356,-1.76181 -0.31499,-1.15058 0.41346,-2.37198 0.66917,-1.12198 1.53048,-1.43621 l 0.0339,-0.0568 q -0.50469,-0.49355 -0.61646,-0.93567 -0.11888,-0.44635 0.13524,-0.87242 0.34729,-0.58229 0.51695,-0.76992 l 0.56261,0.41257 q -0.4574,0.76693 -0.51131,1.29314 -0.0497,0.51912 0.2543,0.71967 l 0.0426,0.0254 q 0.49182,-0.0821 0.89895,-0.0222 0.40425,0.0486 0.83032,0.30267 0.72432,0.43199 1.10332,1.12014 0.37614,0.6768 0.27914,1.53353 -0.1041,0.85248 -0.53609,1.5768 -0.22446,0.37636 -0.46613,0.6847 -0.23742,0.30125 -0.40161,0.41512 0.0583,0.61242 0.58382,0.92582 0.44027,0.26259 0.92834,-0.16835 0.48097,-0.43518 1.48472,-2.11815 1.53738,-2.57772 3.16354,-1.60785 1.2356,0.73693 1.51175,2.21091 0.27615,1.47398 -0.7403,3.17826 -0.79622,1.33501 -1.83156,1.79576 -1.02823,0.46498 -2.13601,-0.19572 z m -3.07556,-8.56363 q -0.88054,-0.52517 -1.7122,-0.26064 -0.82743,0.25742 -1.40342,1.22318 -0.53364,0.89474 -0.37974,1.71819 0.15814,0.81634 0.97477,1.30339 0.89474,0.53364 1.70934,0.24931 0.80749,-0.28857 1.37078,-1.23302 0.51246,-0.85924 0.37413,-1.69265 -0.13833,-0.83342 -0.93366,-1.30776 z m 6.42969,2.34255 q -0.78112,-0.46587 -1.46653,-0.12374 -0.6783,0.34636 -1.66511,2.00093 -0.5294,0.88764 -1.11163,1.63788 -0.0919,0.63834 0.14345,1.16379 0.23536,0.52545 0.79635,0.86004 0.94445,0.56328 1.84388,0.18514 0.90653,-0.37391 1.69004,-1.68762 0.82163,-1.37763 0.69114,-2.4663 -0.11916,-1.09154 -0.92159,-1.57012 z m -14.86087,7.24988 0.0101,-0.0131 q -0.1337,-1.81606 0.68467,-2.87643 0.87395,-1.13237 1.79782,-1.32801 0.92891,-0.20217 2.13329,0.72734 l 0.46622,0.37027 q 0.11127,0.0859 0.32877,0.26419 0.79855,0.61631 1.29451,0.98864 l 2.17161,1.66557 -0.50517,0.65455 q -1.87513,-1.69786 -4.02206,-3.35483 -1.008,-0.77796 -1.80039,-0.52263 -0.78733,0.24878 -1.44406,1.09969 -0.84363,1.0931 -0.6964,2.64805 0.46772,0.38187 1.62627,1.27602 0.85091,0.65672 1.61524,1.23618 l 1.39775,1.05787 q 0.13746,0.10609 0.42396,0.31677 l -0.48496,0.62836 q -2.32436,-1.9819 -3.12945,-2.60326 -1.3091,-1.01034 -3.19991,-2.05187 l 0.35762,-0.74754 z m -5.06439,-0.38821 q 0.15037,-0.165 0.39171,-0.13523 0.23524,0.0242 0.42469,0.19684 0.22,0.20049 0.27865,0.4553 0.0586,0.2548 -0.14742,0.48091 -0.17264,0.18945 -0.41901,0.17747 -0.24081,-0.0181 -0.43637,-0.1963 -0.20778,-0.18935 -0.25583,-0.46806 -0.0425,-0.28481 0.16358,-0.51093 z m 1.86165,2.65857 0.46432,-0.84094 q 1.36266,1.36485 3.15937,3.00219 1.49114,1.35889 2.78471,2.36992 l -0.58477,0.64168 q -1.39538,-1.43941 -2.61763,-2.55325 -1.72337,-1.57052 -3.206,-2.6196 z m -0.51187,1.70638 q -0.66387,0.26693 -1.18443,0.77528 -0.55014,0.53724 -0.65213,1.24935 -0.0961,0.70634 0.29807,1.48866 2.71507,2.78026 4.02173,4.02361 l -0.57972,0.56612 q -1.52367,-1.6786 -2.783,-2.96817 -1.31132,-1.3428 -2.8649,-2.47215 l 0.38769,-0.6444 q 0.82349,0.57107 1.08372,0.81388 l 0.071,-0.0693 q -0.1416,-0.87872 -0.0173,-1.49702 0.13019,-0.62408 0.53836,-1.02267 0.46732,-0.45636 1.3264,-0.91393 z m -7.00076,10.22627 q 1.00689,1.24863 2.43196,1.44841 1.42631,0.18815 2.73287,-0.86545 0.99119,-0.79929 1.48679,-1.52821 l 0.32511,0.58756 q -0.14762,0.22526 -0.51927,0.62055 -0.36646,0.40172 -0.8363,0.7806 -1.70561,1.3754 -3.28951,1.17624 -1.58264,-0.21079 -2.64663,-1.53022 -0.56572,-0.70156 -0.88107,-1.43507 -0.3089,-0.73871 -0.36742,-1.50938 -0.0402,-1.70951 1.23416,-2.73716 1.14566,-0.92385 2.37328,-0.69232 1.23406,0.22635 2.1112,1.31408 0.28545,0.35399 0.43099,0.58715 z m -0.32988,-0.48812 4.03554,-3.25423 q -0.87714,-1.08773 -1.81929,-1.29455 -0.94216,-0.20682 -1.86254,0.53538 -0.85603,0.69029 -0.97461,1.74186 -0.11734,1.03994 0.6209,2.27154 z m -5.92051,3.77647 0.014,-0.009 q 0.26501,-0.16879 0.62037,-1.14995 0.35537,-0.98116 0.73478,-2.12467 0.38637,-1.14795 0.27977,-1.31532 l 0.98331,-0.62628 q 0.0533,0.0837 -0.0537,0.48514 -0.10004,0.39701 -0.49028,1.40038 l -0.53087,1.36742 q -0.50427,1.30146 -0.58218,1.51773 l 0.009,0.014 q 0.62466,0.0727 1.39901,0.22647 0.77688,0.14238 2.15625,0.43037 l 0.53209,0.11204 q 1.34007,0.30323 1.83666,0.46727 0.49913,0.15264 0.54355,0.22237 l -0.95541,0.60852 q -0.11105,-0.17434 -2.03965,-0.63207 -1.92164,-0.46217 -2.96108,-0.66279 -1.03944,-0.20061 -1.27655,-0.0496 l -0.0279,0.0178 q 0.38643,0.60673 1.28362,1.90764 0.89719,1.30091 1.24871,1.82203 l -0.79502,0.50636 q -0.43467,-0.71324 -0.62504,-1.04292 l -0.89537,-1.49813 q -0.77161,-1.27305 -1.70438,-2.73756 -1.86109,-2.92203 -3.08941,-4.51198 l 0.7912,-0.54314 q 1.90683,3.14777 2.86625,4.65412 z m -8.3466,2.05228 0.0149,-0.007 q 0.68719,-1.68634 1.89151,-2.27264 1.28609,-0.6261 2.20067,-0.39083 0.92201,0.23164 1.58792,1.59951 l 0.25314,0.53887 q 0.0615,0.12638 0.17714,0.38276 0.44153,0.90696 0.72039,1.46089 l 1.20536,2.45707 -0.74341,0.36191 q -0.92541,-2.35426 -2.11246,-4.79264 -0.55734,-1.14485 -1.38066,-1.2682 -0.81588,-0.12698 -1.78231,0.3435 -1.24149,0.60438 -1.80054,2.06281 0.24933,0.54993 0.88991,1.86576 0.47048,0.96643 0.89772,1.82517 l 0.78212,1.56879 q 0.076,0.15611 0.23905,0.47216 l -0.71367,0.34743 q -1.20163,-2.80832 -1.64677,-3.72271 -0.72382,-1.48682 -1.9549,-3.26005 l 0.65254,-0.51078 z m -4.35651,-2.60444 q 0.20811,-0.0808 0.41097,0.0533 0.19986,0.12639 0.29265,0.36532 0.10775,0.27746 0.0468,0.53173 -0.0609,0.25427 -0.34609,0.36502 -0.23893,0.0928 -0.45421,-0.0276 -0.20758,-0.12339 -0.30335,-0.37003 -0.10177,-0.26205 -0.0207,-0.53301 0.0888,-0.27395 0.37393,-0.38469 z m 0.48353,3.20935 0.79013,-0.54632 q 0.61261,1.82876 1.49259,4.09474 0.73032,1.88062 1.43857,3.36179 l -0.80928,0.31428 q -0.60872,-1.9101 -1.20735,-3.45158 -0.84406,-2.1735 -1.70466,-3.77291 z m 1.23971,7.82462 q -0.6201,0.42324 -1.10853,0.5789 -1.37862,0.43934 -2.02391,-0.19677 -0.64781,-0.64399 -1.19009,-2.34561 -0.65776,-2.06399 -1.15667,-3.68397 -0.47267,0.15063 -1.45021,0.51423 l -0.17436,-0.65603 q 0.88951,-0.2314 1.51973,-0.43225 -0.27365,-0.85868 -0.63101,-2.30682 l 0.67819,-0.2682 q 0.43025,1.86749 0.59093,2.37167 0.68537,-0.21842 2.51156,-0.88718 l 0.16864,0.69256 q -1.6379,0.46991 -2.55173,0.76113 0.39208,1.39369 0.98708,3.26074 0.65274,2.04824 1.2596,2.42759 0.61222,0.36895 1.43152,0.10786 0.22846,-0.0728 0.46012,-0.19003 0.22915,-0.12509 0.5614,-0.33511 z m -12.80832,-0.83117 q 0.33616,1.56842 1.51829,2.38896 1.18848,0.81073 2.82966,0.45897 1.24503,-0.26684 2.01594,-0.69421 l 0.0254,0.67103 q -0.2333,0.13456 -0.7432,0.31995 -0.50817,0.19348 -1.09835,0.31997 -2.14242,0.45919 -3.46661,-0.43238 -1.31784,-0.90139 -1.67306,-2.55873 -0.18887,-0.88122 -0.13982,-1.67814 0.0571,-0.79866 0.35219,-1.51301 0.73449,-1.5442 2.33524,-1.88729 1.43906,-0.30844 2.43062,0.45148 0.99965,0.75818 1.29248,2.12448 0.0953,0.44466 0.12015,0.71838 z m -0.0745,-0.5844 5.06905,-1.08645 q -0.29284,-1.3663 -1.0407,-1.97551 -0.74786,-0.6092 -1.90396,-0.36142 -1.07525,0.23046 -1.655,1.11576 -0.5734,0.87548 -0.46939,2.30762 z m -6.9169,5.33426 0.0979,-0.79219 q 0.57817,0.19572 1.23998,0.24108 0.67004,0.0445 1.50858,-0.0455 0.78921,-0.0847 1.20076,-0.51144 0.41977,-0.42759 0.35534,-1.02772 -0.053,-0.49326 -0.33197,-0.84583 -0.27901,-0.35257 -1.17018,-0.59783 -0.89205,-0.25349 -1.65991,-0.51199 -0.76785,-0.2585 -1.17166,-0.68915 -0.39648,-0.43974 -0.46179,-1.04809 -0.0953,-0.88787 0.55607,-1.48169 0.65139,-0.59383 1.72834,-0.70946 1.1756,-0.12622 2.2441,0.0667 l -0.11494,0.71086 q -0.85007,-0.24967 -2.14076,-0.1111 -0.80565,0.0865 -1.24363,0.49942 -0.42976,0.41203 -0.37327,0.93817 0.0644,0.60013 0.6021,0.88335 0.53767,0.28322 1.77356,0.64116 1.23502,0.34971 1.77213,0.78267 0.54533,0.43208 0.63801,1.29528 0.11033,1.02762 -0.51932,1.66901 -0.63055,0.63317 -1.84725,0.7638 -1.3729,0.1474 -2.68218,-0.1195 z m -5.80095,0.74068 q -1.49654,-0.006 -2.50136,-1.05936 -0.99652,-1.06203 -0.98971,-2.89756 0.008,-2.12492 1.13693,-3.3527 1.12904,-1.22778 2.75787,-1.22174 1.28983,0.005 2.36928,1.00099 1.07947,0.98793 1.07199,3.00536 -0.008,2.09184 -1.14504,3.31132 -1.12901,1.21952 -2.69996,1.21369 z m 0.17843,-7.97822 q -1.52134,-0.006 -2.23676,1.16579 -0.71539,1.16317 -0.72029,2.48608 -0.006,1.65363 0.80024,2.70669 0.80638,1.05307 2.14582,1.05804 1.51308,0.006 2.24503,-1.16577 0.73196,-1.17137 0.73681,-2.47774 0.006,-1.61229 -0.81685,-2.69022 -0.82283,-1.07793 -2.154,-1.08287 z m -9.65704,7.3163 q -1.48372,-0.19557 -2.34656,-1.36845 -0.85357,-1.18 -0.6137,-2.9998 0.27769,-2.10671 1.55352,-3.18116 1.27583,-1.07445 2.8907,-0.86159 1.27878,0.16856 2.22297,1.29379 0.94527,1.11702 0.68162,3.11717 -0.27337,2.07391 -1.55632,3.13909 -1.27475,1.06625 -2.83223,0.86095 z m 1.19024,-7.89095 q -1.5083,-0.19882 -2.3667,0.87228 -0.85732,1.06289 -1.03021,2.37446 -0.2161,1.63946 0.45001,2.78641 0.66611,1.14695 1.99408,1.32199 1.5001,0.19774 2.3749,-0.87119 0.8748,-1.06894 1.04552,-2.36411 0.2107,-1.59848 -0.46857,-2.77218 -0.67926,-1.1737 -1.99903,-1.34766 z m -14.90281,-2.78637 0.0159,0.005 q 1.415077,-0.84895 2.620244,-0.49252 1.046594,0.30954 1.599704,0.80077 0.555467,0.4833 0.592777,1.11514 l 0.0634,0.0188 q 0.76349,-0.395 1.460757,-0.5078 0.699617,-0.12073 1.270497,0.0481 1.332017,0.39395 1.822157,1.18558 0.490154,0.79163 0.0634,2.23465 l -0.248,0.78026 -0.14249,0.42346 -0.38133,1.31851 q -0.29982,1.1012 -0.75474,2.63937 l -0.769077,-0.22746 q 0.822527,-2.11061 1.744087,-5.22659 0.30016,-1.01488 -0.0513,-1.5758 -0.34909,-0.56885 -1.538397,-0.92059 -0.54709,-0.1618 -1.214997,-0.0317 -0.659967,0.13245 -1.362377,0.55414 -0.219307,0.62492 -0.627327,2.00451 -0.38926,1.31617 -1.120214,3.96257 l -0.77701,-0.2298 q 0.74302,-1.98754 1.608314,-4.91324 0.41271,-1.39545 -0.009,-1.95135 -0.421914,-0.55589 -1.484364,-0.87011 -1.110017,-0.3283 -2.592104,0.39737 -0.1589,0.47897 -0.543467,1.77928 -0.42209,1.42716 -0.996264,3.45602 l -0.24064,0.84279 -0.72944,-0.21573 q 1.008,-2.88349 1.296434,-3.85872 0.46899,-1.58575 0.75684,-3.72515 l 0.826257,0.0633 z m -12.138167,3.86206 q 0.32383,-0.6883 0.91702,-1.09453 0.593177,-0.40624 1.396754,-0.36626 l 0.0141,-0.0299 q -0.20114,-0.21342 -0.24209,-0.53423 -0.0374,-0.32829 0.14912,-0.72481 0.3168,-0.67334 1.228607,-0.90225 l 0.007,-0.015 q -0.27331,-0.29307 -0.393067,-0.97077 -0.10875,-0.68166 0.225637,-1.39241 0.51744,-1.09978 1.620657,-1.52191 1.114227,-0.42608 2.401054,0.17935 1.182074,0.55615 1.579084,1.38258 l 0.0598,0.0282 q 0.44179,-0.55057 0.87085,-0.70507 0.43258,-0.16199 0.881474,0.0492 0.61348,0.28864 0.81681,0.43912 l -0.35553,0.60029 q -0.808004,-0.38015 -1.336974,-0.38231 -0.52149,0.001 -0.69133,0.32351 l -0.0211,0.0449 q 0.12986,0.48143 0.11009,0.89246 -0.009,0.40707 -0.21996,0.85596 -0.35904,0.76312 -1.006787,1.20764 -0.63674,0.44057 -1.498847,0.42788 -0.858577,-0.0202 -1.621694,-0.37921 -0.39652,-0.18655 -0.727027,-0.39688 -0.32303,-0.20681 -0.45243,-0.35906 -0.603767,0.11799 -0.864237,0.67162 -0.21824,0.46386 0.2584,0.90741 0.480147,0.43607 2.253271,1.2703 2.715784,1.27774 1.909717,2.99101 -0.61247,1.30179 -2.052344,1.72086 -1.439877,0.41907 -3.235441,-0.42572 -1.406527,-0.66175 -1.966377,-1.64702 -0.563377,-0.9778 -0.0143,-2.14492 z m 8.221529,-3.89885 q 0.436467,-0.92771 0.0918,-1.7295 -0.33717,-0.79826 -1.354647,-1.27697 -0.942677,-0.44352 -1.747104,-0.20977 -0.79695,0.23727 -1.201747,1.09764 -0.44351,0.94268 -0.0808,1.72553 0.366207,0.77538 1.361244,1.24353 0.90527,0.42592 1.721137,0.20669 0.815877,-0.21922 1.210117,-1.05715 z m -1.702087,6.62807 q 0.3872,-0.82296 -0.0204,-1.4716 -0.411077,-0.64115 -2.154274,-1.4613 -0.935187,-0.43999 -1.738794,-0.94601 -0.644267,-0.029 -1.144167,0.25666 -0.499897,0.28565 -0.777967,0.87669 -0.46816,0.99505 -0.004,1.85315 0.460817,0.86558 1.844904,1.51677 1.451417,0.68287 2.522084,0.44646 1.074637,-0.2254 1.472394,-1.07082 z m -8.668074,-14.08063 0.01402,0.009 q 1.794295,-0.31057 2.929582,0.40025 1.212357,0.75908 1.497354,1.6594 0.292,0.90471 -0.515347,2.19417 l -0.32293,0.50018 q -0.0746,0.11914 -0.23079,0.35302 -0.535297,0.85496 -0.857377,1.38494 l -1.445342,2.32401 -0.700791,-0.43878 q 1.506466,-2.03211 2.94565,-4.3307 0.67571,-1.07922 0.34416,-1.84285 -0.32455,-0.75925 -1.235567,-1.32966 -1.170317,-0.73276 -2.703435,-0.43425 -0.334324,0.5028 -1.11096,1.7432 -0.570411,0.91103 -1.072385,1.72833 l -0.916192,1.49445 q -0.09214,0.14717 -0.27381,0.4529 l -0.672759,-0.42123 q 1.745231,-2.50694 2.284928,-3.36891 0.877555,-1.40158 1.729285,-3.38513 l 0.778918,0.28283 z m -0.109616,-5.07863 q 0.178924,0.1335 0.17291,0.3766 -0.0011,0.23648 -0.15435,0.44191 -0.178004,0.23856 -0.425846,0.32186 -0.247841,0.0833 -0.493033,-0.0997 -0.205431,-0.15329 -0.217616,-0.39965 -0.0056,-0.24142 0.152668,-0.45348 0.168115,-0.22531 0.440781,-0.3004 0.279293,-0.0701 0.524486,0.11281 z m -2.463673,2.11284 0.882333,0.37981 q -1.224977,1.48966 -2.678677,3.43794 -1.206473,1.61694 -2.086093,3.00322 l -0.695816,-0.51918 q 1.295986,-1.52952 2.284898,-2.85488 1.394365,-1.86876 2.293355,-3.44691 z m -1.385286,-0.74182 q -0.33071,-0.63451 -0.887636,-1.10274 -0.58857,-0.49483 -1.307252,-0.52655 -0.712354,-0.0264 -1.452273,0.44254 -2.500774,2.97449 -3.610077,4.39672 l -0.620213,-0.52144 q 1.521185,-1.68086 2.681118,-3.06051 1.20782,-1.43662 2.179463,-3.0934 l 0.679304,0.32267 q -0.487615,0.87549 -0.703751,1.15827 l 0.07594,0.0638 q 0.86061,-0.22703 1.488112,-0.16396 0.633831,0.0684 1.070512,0.43554 0.499968,0.42034 1.039525,1.23044 z m -10.865831,-5.96425 q -1.143516,1.12485 -1.20212,2.56266 -0.04691,1.4379 1.130126,2.63447 0.892925,0.90774 1.667069,1.32922 l -0.552728,0.38134 q -0.238689,-0.12475 -0.668622,-0.4557 -0.435828,-0.32515 -0.859097,-0.75545 -1.536526,-1.56202 -1.494163,-3.15782 0.05406,-1.5957 1.262411,-2.78434 0.642491,-0.632 1.341424,-1.01798 0.704732,-0.38009 1.465907,-0.51414 1.697259,-0.20822 2.845304,0.95888 1.032082,1.0492 0.922449,2.29365 -0.103835,1.25034 -1.099991,2.23024 -0.324192,0.3189 -0.541901,0.48666 z m 0.453292,-0.37631 3.635478,3.6958 q 0.996156,-0.9799 1.109278,-1.93783 0.113122,-0.95793 -0.716022,-1.80083 -0.771162,-0.78396 -1.829296,-0.79851 -1.046442,-0.0145 -2.199438,0.84137 z m 0.780723,-3.8381 -1.311214,1.02114 q -2.920662,2.25129 -4.833664,3.91377 l -0.437107,-0.53998 q 0.267401,-0.28964 0.666864,-0.59755 l -0.05048,-0.0655 q -0.592367,-0.0236 -1.29046,-0.41462 -0.698094,-0.39101 -1.26344,-1.12445 -0.923735,-1.19839 -0.612119,-2.64956 0.323214,-1.44967 1.626379,-2.45417 1.558559,-1.20136 3.202097,-1.10066 1.643538,0.1007 2.748991,1.53484 0.459344,0.59592 0.654974,1.13413 0.207227,0.53971 0.133551,0.97232 l 0.0101,0.0131 q 1.178742,-0.90859 3.233902,-2.57625 l 0.569303,0.65731 q -0.82621,0.55334 -1.946015,1.4165 -0.720342,0.55525 -1.10166,0.85962 z m -1.233576,0.0113 q 0.05144,-0.48855 -0.140644,-1.00861 -0.192084,-0.52006 -0.575712,-1.01776 -1.004498,-1.30316 -2.300147,-1.35884 -1.284053,-0.0542 -2.770578,1.09166 -1.172194,0.90354 -1.393356,2.06577 -0.209566,1.16372 0.638453,2.26388 0.42401,0.55008 0.949115,0.86564 0.531653,0.31051 1.497148,0.41189 0.333977,-0.25743 1.006978,-0.76575 1.702628,-1.31241 3.088743,-2.54788 z m -7.381893,-10.91094 0.0084,0.0142 q 1.736033,0.54969 2.41705,1.70309 0.727259,1.23172 0.566127,2.16223 -0.156929,0.93762 -1.466969,1.71112 l -0.516828,0.29555 q -0.121037,0.0715 -0.367313,0.20728 -0.868614,0.51286 -1.398394,0.83527 l -2.352445,1.39858 -0.420381,-0.71198 q 2.272426,-1.11129 4.607715,-2.49014 1.096447,-0.64738 1.153358,-1.47794 0.06112,-0.82344 -0.48538,-1.74901 -0.702036,-1.18901 -2.200614,-1.62925 -0.528152,0.29264 -1.788353,1.03672 -0.925572,0.54649 -1.747263,1.04125 l -1.500987,0.90545 q -0.149516,0.0883 -0.451463,0.27617 l -0.403565,-0.6835 q 2.702869,-1.42305 3.578602,-1.94012 1.423957,-0.84076 3.092709,-2.21014 l 0.561489,0.60946 z m -7.134243,-0.65975 q -1.405194,-0.58081 -2.084267,-2.11575 -0.508469,-1.14932 -0.276168,-1.99347 0.239862,-0.8475 1.222829,-1.28238 1.23249,-0.54526 2.36621,0.21894 1.137065,0.77177 2.400813,3.56697 0.285587,-0.0902 0.550232,-0.20726 1.035897,-0.4583 1.17572,-1.22537 0.147385,-0.77042 -0.304215,-1.79119 -0.535231,-1.20981 -1.387164,-2.29759 l 0.693758,-0.18939 q 0.821827,1.01973 1.357057,2.22953 0.578718,1.30811 0.358788,2.28241 -0.212368,0.97095 -1.467541,1.52625 -0.40831,0.18064 -1.214755,0.48317 -0.795538,0.30675 -1.56679,0.64796 -1.111509,0.49174 -2.274621,1.21426 l -0.29786,-0.59152 q 0.435348,-0.28301 0.768045,-0.4302 z m 3.113508,-1.34128 q -0.88313,-1.99618 -1.849492,-2.93388 -0.9588,-0.94104 -2.168606,-0.40581 -1.345909,0.59544 -0.556445,2.3799 0.361281,0.81662 0.880892,1.33716 0.522957,0.52811 1.198426,0.72654 z m 0.895942,-6.52041 q -0.262477,0.0745 -2.922859,-0.30468 -2.658124,-0.37124 -3.926602,-0.44944 -1.268479,-0.0782 -1.530956,-0.004 l -0.106138,-0.37383 q 0.2068,-0.0587 0.68325,-0.40887 0.486662,-0.34445 1.771665,-1.32813 l 1.369158,-1.05055 q 0.88927,-0.68224 1.385066,-1.05507 0.498053,-0.36488 0.872083,-0.59141 -0.499613,-0.0644 -1.225272,-0.10765 l -0.808534,-0.0627 q -0.563244,-0.0464 -2.863845,-0.27846 -2.298341,-0.22414 -2.608541,-0.13606 l -0.106139,-0.37383 q 0.58063,-0.16486 3.41577,-2.43956 2.843094,-2.27697 3.368048,-2.42602 l 0.207761,0.73176 q -0.556769,0.15808 -3.008547,2.05749 -2.441565,1.90511 -2.791534,2.00448 l 0.01355,0.0477 q 0.262477,-0.0745 1.510531,-0.008 1.256008,0.0645 3.239734,0.30066 1.993937,0.24181 2.327999,0.14696 l 0.230343,0.81129 q -0.469276,0.13324 -3.035845,2.08244 -2.56431,1.95715 -2.755203,2.01135 l 0.01355,0.0477 q 0.238616,-0.0677 1.105185,-0.0731 0.868828,0.003 2.260931,0.18319 1.392103,0.18062 2.387992,0.26745 1.006102,0.0925 1.308348,0.007 z m 30.222643,-60.96689 c 0.959602,-1.57141 -0.506995,-2.99516 -3.096313,-3.00586 -1.346284,-0.006 -2.786362,0.36828 -2.958915,0.76812 -0.141704,0.32836 1.764693,1.45185 3.991775,2.35246 1.385623,0.56027 1.660584,0.54502 2.063453,-0.11472 z m 26.509729,27.85134 -1.53139,0.6814 c -1.95409,0.86956 -4.17527,1.06947 -6.557672,0.59005 -2.426376,-0.48764 -7.181571,-2.54092 -10.987937,-4.74471 -1.651235,-0.95573 -3.048434,-1.71891 -3.105237,-1.69636 -0.05685,0.0226 0.245056,0.36751 0.670869,0.76786 0.4259,0.40027 1.668127,1.98454 2.760615,3.52037 1.092498,1.53587 2.579666,3.31669 3.304426,3.95681 l 2.67e-4,-6.1e-4 c 3.662752,3.23614 9.083149,3.01028 13.088459,-0.54492 0.75447,-0.66969 1.5933,-1.51259 1.86444,-1.87346 z m -5.23521,-16.52427 c -0.6879,-0.2828 -1.35329,-0.42879 -1.8266,-0.33106 -0.992328,0.20487 -1.055234,0.4847 -0.337108,1.49941 0.374748,0.5293 1.060848,1.05594 1.784668,1.36889 1.35801,0.5875 3.37531,0.6969 3.42834,0.18604 0.0845,-0.81423 -1.53611,-2.10054 -3.0493,-2.72328 z m 60.21741,-15.05694 c -0.0994,-0.0815 -0.84946,-0.16042 -2.53005,-0.32848 -2.62511,-0.26248 -6.76609,0.0275 -9.02761,0.63185 -2.30114,0.6149 -4.20912,1.57866 -6.99486,3.53414 -4.76363,3.34392 -6.53536,4.25723 -8.94879,4.61316 -1.31476,0.19399 -1.32474,0.26211 -0.11272,0.78229 1.23536,0.53018 4.23442,2.33513 7.47762,4.49916 4.28761,2.86096 6.69853,4.38147 6.68256,4.21524 -0.008,-0.08 -0.42169,-0.67989 -0.92015,-1.33306 -0.49851,-0.65312 -1.04463,-1.5108 -1.2134,-1.90606 -0.84965,-1.98796 -0.39707,-5.21751 1.0336,-7.37614 2.1183,-3.19605 7.29387,-5.86945 13.7362,-7.0944 0.57875,-0.11005 0.89501,-0.17442 0.8176,-0.2377 z m -21.9582,-11.26259 c -0.0391,-0.072 -0.43921,-0.0214 -1.15564,0.077 -2.19515,0.30146 -5.25528,1.47212 -7.56567,2.89391 l -2.00943,1.23659 -4.01678,4.81113 -4.01631,4.81057 -2.57366,1.70941 c -3.74671,2.48855 -4.60006,3.16721 -5.77524,4.58747 -1.48186,1.79038 -2.78308,4.31871 -2.62359,5.97956 l -4.3e-4,5.2e-4 c 0.1606,1.67332 0.46554,2.09085 0.84554,1.15824 0.14131,-0.34713 1.74078,-2.82307 2.44538,-3.67509 l 1.28247,-1.54861 1.18862,-0.51843 c 2.6849,-1.17078 5.23669,-1.06074 9.18957,0.39734 5.36585,1.97919 8.45213,4.01094 24.29743,15.99097 7.23511,5.47019 10.72922,7.61586 15.44627,9.48757 4.75436,1.88652 9.50073,3.17074 13.18253,3.56669 2.12731,0.22874 5.92334,0.10097 6.72027,-0.2267 l 0.51204,-0.20994 -0.8301,-0.0195 c -1.94837,-0.0452 -3.56896,-1.46132 -3.701,-3.23449 -0.0888,-1.19356 0.37928,-2.00985 1.63997,-2.85712 l 1.02429,-0.68781 -1.00714,0.2421 c -2.76112,0.66515 -6.75154,0.58526 -10.18177,-0.20391 -6.73877,-1.55038 -13.06852,-4.90205 -26.77414,-14.17837 -8.33029,-5.63822 -15.3218,-9.93597 -18.30858,-11.25388 l -0.78672,-0.34678 -0.0486,-1.1971 c -0.0705,-1.71963 0.59559,-4.08117 1.71715,-6.08721 1.87105,-3.34662 6.41469,-7.67023 10.14811,-9.65584 1.23998,-0.65933 1.78656,-0.95493 1.7363,-1.04748 z m -33.03755,-22.16174 -1.37606,1.8587 c -2.81092,3.79741 -5.23052,9.56405 -5.904936,14.07241 -1.316472,8.79972 0.930986,16.80086 7.112996,25.32334 l 8.5e-4,-10e-4 c 1.03632,1.4286 1.32891,6.06802 1.54053,6.25194 l 0.38654,0.33191 0.40945,-1.27239 c 0.30221,-0.98737 1.49555,-5.03284 2.70166,-6.5261 l 1.56012,-1.93249 0.99318,-4.44293 c 1.01115,-4.52333 1.49016,-7.96596 1.30624,-9.38773 l -0.10242,-0.79029 -1.61045,2.13692 c -1.88389,2.49888 -2.76286,3.10312 -4.21062,2.89591 -1.83885,-0.26318 -3.07668,-1.78403 -4.15809,-5.11026 -2.31833,-7.13068 -2.17122,-14.08306 0.44356,-21.00794 z m 66.16774,56.89725 -2.19428,0.46644 c -3.5968,0.76537 -7.9447,0.52681 -11.85782,-0.651 -1.31702,-0.39639 -5.34311,-1.99245 -6.46889,-2.56443 -1.23729,-0.62858 0.86595,0.85316 3.53342,2.48924 8.87871,5.44586 14.36246,7.43439 19.66251,7.13072 1.7945,-0.1028 4.41097,-0.65088 4.37367,-0.91607 -0.009,-0.0605 -1.11326,-0.27055 -2.45472,-0.46678 -5.15313,-0.75362 -7.08993,-2.46181 -5.27968,-4.65664 z m 12.88563,17.74204 -3.17894,0.11904 c -3.81265,0.14259 -6.90212,-0.14002 -10.31387,-0.94412 -7.42216,-1.74937 -12.67212,-4.67713 -25.90437,-14.44759 -9.28045,-6.85247 -13.55538,-9.73082 -17.54232,-11.81081 -7.78854,-4.06334 -11.5605,-4.28383 -14.86892,-0.47488 l -1.84517,2.12436 0.036,1.15373 0.003,0.003 c 0.0196,0.63458 0.16161,1.25737 0.16161,1.25737 0.0652,-0.0611 0.61393,-0.4932 1.21286,-1.22165 1.24097,-1.51303 2.89884,-2.82125 4.68868,-2.91796 1.49697,-0.0809 2.20761,0.0455 4.13808,0.73593 4.13833,1.48008 6.83942,3.30214 17.7979,12.00806 4.9405,3.9249 10.16375,7.96157 11.60777,8.97062 14.96086,10.45482 25.47407,14.38298 35.82601,13.38454 1.89982,-0.18321 3.44658,-0.41282 3.43757,-0.50888 -0.009,-0.0964 -0.53667,-0.24113 -1.1722,-0.32199 -0.63556,-0.0809 -1.78356,-0.44887 -2.55098,-0.81728 -1.82056,-0.87431 -2.82579,-1.9759 -3.03115,-3.32007 l -0.15272,-0.99927 0.8257,-0.98523 z m 10.27292,10.33083 c -0.0315,-0.0146 -0.14884,-7e-4 -0.36786,0.0481 -11.52303,2.56373 -23.77045,-0.10382 -36.59975,-7.97153 -4.49958,-2.75956 -5.92303,-3.84507 -17.31647,-13.19977 -12.1715,-9.99487 -13.15266,-10.72561 -17.52463,-13.05197 -5.02694,-2.67481 -7.5975,-2.77099 -9.35643,-0.35001 -1.20239,1.65647 0.76906,4.22449 0.97916,3.38977 l 0.21967,-0.8732 0.76302,-0.40276 c 0.48908,-0.25798 1.0908,-0.31991 1.67596,-0.17263 1.28109,0.3225 3.9759,1.62057 5.91252,2.84817 2.36271,1.49758 8.44209,6.59342 11.99975,10.05782 10.63623,10.35754 19.52007,16.47208 29.23478,20.12227 3.36757,1.26536 9.09953,2.55751 12.40877,2.79683 3.42144,0.24748 8.99101,-0.25767 12.18061,-1.10436 2.0845,-0.55336 6.01482,-2.03592 5.79089,-2.13667 z m -94.76918,43.80292 c 5.05539,-11.8572 6.26086,-24.20987 3.51339,-36.00281 -0.95403,-4.09497 -3.26991,-10.09431 -5.21458,-13.50852 l -1.363149,-2.39324 1.729459,-0.38933 c 2.30153,-0.51812 5.29647,-1.92011 6.84284,-3.20328 1.31906,-1.09456 3.26549,-3.36172 3.1455,-3.66386 -0.0387,-0.0974 -0.94674,0.48859 -2.01793,1.30222 -3.82133,2.90251 -10.140549,3.38783 -15.410578,1.18353 -3.418577,-1.42985 -5.411946,-3.7567 -8.288236,-9.67457 -2.614764,-5.37982 -4.501095,-7.86519 -7.650032,-10.07947 -3.099761,-2.17969 -4.451997,-3.70997 -5.328631,-6.03024 -0.676269,-1.78989 -0.814724,-4.49553 -0.241696,-4.72307 0.136263,-0.0541 1.067118,0.55166 2.068466,1.34611 2.351618,1.86582 7.375009,4.52688 7.592828,4.02215 0.323429,-0.74948 -1.902026,-3.14621 -5.412286,-5.82885 -5.713098,-4.36606 -6.437327,-5.38725 -5.447459,-7.68103 0.535793,-1.24158 3.050694,-2.58502 5.096312,-2.7224 0.733003,-0.0492 2.502872,-0.49217 3.933046,-0.98434 2.596924,-0.89367 5.537645,-0.89729 7.595177,-0.009 2.162254,0.93311 4.159635,3.14249 6.429282,7.11165 1.273307,2.22673 2.574218,4.36931 2.890943,4.76127 0.346233,0.4285 2.185261,1.37184 4.611904,2.36572 3.40493,1.39464 4.36601,1.94675 6.14611,3.5316 4.6775,4.16432 -0.24888,-0.12049 6.8788,6.29557 1.57514,1.41787 2.99039,4.08734 2.99039,4.08734 l 6.08654,2.62661 c 4.6497,2.00656 6.66493,3.05531 8.53657,4.44254 1.34749,0.99876 2.38735,1.9611 2.31078,2.13854 -0.27803,0.64426 -5.60647,1.74712 -8.11816,1.68027 -2.72058,-0.0724 -8.70427,-1.67661 -10.02518,-2.68768 -0.42687,-0.32677 -0.82583,-0.47892 -0.88663,-0.33801 -0.0607,0.14082 0.61641,2.2276 1.50481,4.63731 3.3342,9.04365 4.09727,19.48794 2.11727,28.97939 -2.4134,11.56899 -8.89587,24.0082 -16.62762,31.90671 l -1.866407,1.90667 1.878107,-4.4051 z M 88.313231,317.41792 c -0.340371,-4.8648 -3.223477,-10.90725 -7.651098,-16.03517 -3.312137,-3.83601 -5.667777,-5.42675 -8.571166,-5.78802 -2.147847,-0.26727 -3.402605,-0.14515 -10.986878,1.0692 -6.868746,1.09979 -14.190237,0.16954 -19.925292,-2.53167 -1.692226,-0.79697 -2.80008,-1.43756 -2.46196,-1.42342 0.33815,0.0141 2.693878,0.21142 5.235014,0.43838 5.398002,0.48215 10.761007,0.25685 15.603897,-0.65551 3.534448,-0.66583 9.416676,-2.7755 12.205143,-4.37736 l 1.560545,-0.89647 0.311264,-2.46823 c 0.450164,-3.56927 2.506912,-8.09847 5.186506,-11.42137 l 2.121657,-2.631 -1.369896,4.3305 c -3.500622,11.06611 -3.044178,13.52448 4.396113,23.67577 4.695253,6.40609 6.383952,11.7022 5.466299,17.1435 -0.52512,3.11374 -0.968689,3.73579 -1.120142,1.57088 z" />
          </g>
        </g>
      </g>
      <g
         id="g61"
         style="font-weight:bold;font-stretch:condensed;font-size:4.25828px;font-family:Arial;-inkscape-font-specification:'Arial Bold Condensed';fill:none;stroke:#00ff00;stroke-width:0.0188605"
         aria-label="Noritake VDF&#10;GU7000 Case&#10;112x16"
         transform="translate(-236.20878,144.41724)">
        <path
           style="font-weight:normal;-inkscape-font-specification:'Arial Condensed';text-align:center;text-anchor:middle"
           d="m 211.4007,625.73267 v -3.04817 h 0.33891 l 1.31408,2.39321 v -2.39321 h 0.31604 v 3.04817 h -0.33891 l -1.312,-2.39529 v 2.39529 z m 2.37033,-1.10408 q 0,-0.57179 0.23911,-0.86288 0.24119,-0.2911 0.60922,-0.2911 0.36178,0 0.60506,0.2911 0.24327,0.29109 0.24327,0.84001 0,0.59466 -0.23912,0.88575 -0.23911,0.2911 -0.60921,0.2911 -0.36387,0 -0.60714,-0.2911 -0.24119,-0.29317 -0.24119,-0.86288 z m 0.31396,0 q 0,0.42832 0.15595,0.63833 0.15594,0.20792 0.38673,0.20792 0.21624,0 0.37011,-0.21 0.15594,-0.21208 0.15594,-0.63625 0,-0.42624 -0.15594,-0.63417 -0.15594,-0.21 -0.38674,-0.21 -0.21832,0 -0.37218,0.21 -0.15387,0.21001 -0.15387,0.63417 z m 1.7424,1.10408 v -2.20815 h 0.27654 v 0.33475 q 0.10604,-0.23287 0.19337,-0.30772 0.0894,-0.0769 0.19961,-0.0769 0.15386,0 0.31396,0.1206 l -0.10396,0.34723 q -0.11436,-0.0811 -0.22248,-0.0811 -0.0977,0 -0.17881,0.0686 -0.0811,0.0686 -0.11436,0.19129 -0.0582,0.21416 -0.0582,0.45535 v 1.15606 z m 1.1623,-2.61776 v -0.43041 h 0.30565 v 0.43041 z m 0,2.61776 v -2.20815 h 0.30565 v 2.20815 z m 1.45962,-0.33476 0.0416,0.3306 q -0.12684,0.0333 -0.22872,0.0333 -0.1601,0 -0.25782,-0.0624 -0.0977,-0.0645 -0.13515,-0.17466 -0.0354,-0.1102 -0.0354,-0.43872 v -1.27041 h -0.22456 v -0.29109 h 0.22456 v -0.54684 l 0.30565,-0.22456 v 0.7714 h 0.3098 v 0.29109 h -0.3098 v 1.29121 q 0,0.17881 0.027,0.23079 0.0395,0.0748 0.14762,0.0748 0.052,0 0.13515,-0.0145 z m 1.46795,0.0624 q -0.15387,0.1601 -0.32021,0.24119 -0.16634,0.0811 -0.34515,0.0811 -0.28278,0 -0.4512,-0.1705 -0.16841,-0.1705 -0.16841,-0.45951 0,-0.19129 0.079,-0.33892 0.079,-0.14762 0.21624,-0.23079 0.13723,-0.0832 0.41585,-0.12268 0.37426,-0.0541 0.54891,-0.12891 l 0.002,-0.0957 q 0,-0.22663 -0.0811,-0.31812 -0.11435,-0.13307 -0.35139,-0.13307 -0.21416,0 -0.3202,0.0894 -0.10604,0.0873 -0.15594,0.3306 l -0.30149,-0.0499 q 0.0644,-0.35555 0.2599,-0.51773 0.19753,-0.16218 0.56348,-0.16218 0.28485,0 0.44703,0.10812 0.16218,0.10604 0.20377,0.26407 0.0437,0.15802 0.0437,0.46159 v 0.49902 q 0,0.52396 0.0187,0.66119 0.0208,0.13515 0.079,0.26407 h -0.32021 q -0.0478,-0.11436 -0.0624,-0.27238 z m -0.025,-0.83586 q -0.16841,0.0832 -0.50109,0.14139 -0.19337,0.0333 -0.2703,0.0769 -0.0769,0.0416 -0.1206,0.1206 -0.0416,0.0769 -0.0416,0.17881 0,0.15802 0.0977,0.25367 0.0977,0.0936 0.2703,0.0936 0.16426,0 0.29733,-0.0853 0.13515,-0.0852 0.20169,-0.22664 0.0665,-0.14347 0.0665,-0.41585 z m 0.79427,1.10824 v -3.04817 h 0.30565 v 1.73825 l 0.72774,-0.89823 h 0.39713 l -0.69239,0.81921 0.761,1.38894 h -0.37634 l -0.6009,-1.12903 -0.21624,0.25367 v 0.87536 z m 2.97747,-0.7111 0.31605,0.0478 q -0.079,0.35347 -0.28694,0.53436 -0.20584,0.17882 -0.51149,0.17882 -0.38466,0 -0.62377,-0.2911 -0.23703,-0.29317 -0.23703,-0.84417 0,-0.57179 0.23911,-0.8712 0.24119,-0.30149 0.60921,-0.30149 0.3514,0 0.58635,0.29526 0.23495,0.29525 0.23495,0.85456 l -0.002,0.0998 h -1.3515 q 0.0187,0.37218 0.17258,0.56139 0.15386,0.18921 0.37426,0.18921 0.34515,0 0.4803,-0.45327 z m -1.00843,-0.60506 h 1.01051 q -0.0208,-0.28694 -0.12267,-0.42832 -0.14763,-0.20585 -0.37634,-0.20585 -0.20585,0 -0.3514,0.17258 -0.14554,0.17049 -0.1601,0.46159 z m 3.44322,1.31616 -0.96892,-3.04817 h 0.35762 l 0.65081,2.21439 q 0.0748,0.25783 0.13099,0.49902 0.0582,-0.25159 0.13307,-0.49902 l 0.67575,-2.21439 h 0.33684 l -0.97724,3.04817 z m 1.60517,0 v -3.04817 h 0.86289 q 0.3202,0 0.48654,0.0561 0.21832,0.0728 0.37842,0.26614 0.1601,0.19337 0.24951,0.48863 0.0894,0.29317 0.0894,0.69654 0,0.51773 -0.15179,0.87952 -0.15178,0.35971 -0.3909,0.51149 -0.23703,0.14971 -0.62169,0.14971 z m 0.3306,-0.35971 h 0.53229 q 0.32228,0 0.48862,-0.10396 0.16634,-0.10605 0.25574,-0.33892 0.11852,-0.30981 0.11852,-0.74229 0,-0.46367 -0.12683,-0.72773 -0.12476,-0.26614 -0.32228,-0.35555 -0.13308,-0.0603 -0.42209,-0.0603 h -0.52397 z m 2.22063,0.35971 v -3.04817 h 1.68626 v 0.35971 h -1.35566 v 0.94398 h 1.17269 v 0.3597 h -1.17269 v 1.38478 z"
           id="path56" />
        <path
           style="font-weight:normal;-inkscape-font-specification:'Arial Condensed';text-align:center;text-anchor:middle"
           d="m 212.0016,629.85995 v -0.35763 l 1.05833,-0.002 v 1.1311 q -0.24327,0.23703 -0.50318,0.35763 -0.2599,0.11852 -0.53436,0.11852 -0.36595,0 -0.65288,-0.18298 -0.28694,-0.18297 -0.45536,-0.53436 -0.16633,-0.35139 -0.16633,-0.84417 0,-0.49902 0.16841,-0.86912 0.16842,-0.37011 0.4408,-0.54476 0.27238,-0.17674 0.64457,-0.17674 0.27446,0 0.4803,0.10188 0.20584,0.10189 0.33892,0.28902 0.13307,0.18713 0.1996,0.51357 l -0.29733,0.0998 q -0.0603,-0.25782 -0.15178,-0.38466 -0.0915,-0.12891 -0.24119,-0.20168 -0.14971,-0.0728 -0.33684,-0.0728 -0.27238,0 -0.46991,0.13307 -0.19545,0.13099 -0.31604,0.40961 -0.11852,0.27861 -0.11852,0.67991 0,0.61129 0.25575,0.91694 0.25574,0.30357 0.66535,0.30357 0.19545,0 0.39922,-0.0936 0.20584,-0.0936 0.32644,-0.22247 v -0.56764 z m 3.17291,-1.8526 h 0.33268 v 1.76112 q 0,0.44288 -0.0873,0.72773 -0.0853,0.28278 -0.31396,0.44704 -0.22664,0.16426 -0.57803,0.16426 -0.49486,0 -0.74229,-0.29526 -0.24535,-0.29525 -0.24535,-1.04377 v -1.76112 h 0.3306 v 1.75904 q 0,0.41377 0.0645,0.59882 0.0644,0.18505 0.21,0.28278 0.14763,0.0956 0.35763,0.0956 0.35347,0 0.51149,-0.19961 0.1601,-0.1996 0.1601,-0.77763 z m 0.77764,0.39922 v -0.35971 h 1.61765 v 0.29109 q -0.36179,0.46991 -0.63625,1.22467 -0.27446,0.75269 -0.31605,1.4929 h -0.31604 q 0.006,-0.38258 0.1206,-0.892 0.11643,-0.50941 0.31812,-0.971 0.20169,-0.46159 0.43456,-0.78595 z m 1.92121,1.14566 q 0,-0.76724 0.20585,-1.1623 0.20792,-0.39505 0.61129,-0.39505 0.35763,0 0.56348,0.3202 0.24951,0.38674 0.24951,1.23715 0,0.76308 -0.20585,1.16021 -0.20584,0.39506 -0.61129,0.39506 -0.35763,0 -0.58635,-0.34932 -0.22664,-0.34931 -0.22664,-1.20595 z m 0.31397,0 q 0,0.74228 0.14139,0.99595 0.14346,0.25159 0.36594,0.25159 0.21001,0 0.35139,-0.25575 0.14139,-0.25574 0.14139,-0.99179 0,-0.74437 -0.14346,-0.99596 -0.14139,-0.25159 -0.36803,-0.25159 -0.20792,0 -0.34931,0.25575 -0.13931,0.25575 -0.13931,0.9918 z m 1.62804,0 q 0,-0.76724 0.20585,-1.1623 0.20792,-0.39505 0.61129,-0.39505 0.35763,0 0.56348,0.3202 0.24951,0.38674 0.24951,1.23715 0,0.76308 -0.20585,1.16021 -0.20584,0.39506 -0.61129,0.39506 -0.35763,0 -0.58635,-0.34932 -0.22664,-0.34931 -0.22664,-1.20595 z m 0.31397,0 q 0,0.74228 0.14139,0.99595 0.14346,0.25159 0.36594,0.25159 0.21001,0 0.35139,-0.25575 0.14139,-0.25574 0.14139,-0.99179 0,-0.74437 -0.14347,-0.99596 -0.14138,-0.25159 -0.36802,-0.25159 -0.20792,0 -0.34931,0.25575 -0.13931,0.25575 -0.13931,0.9918 z m 1.62804,0 q 0,-0.76724 0.20585,-1.1623 0.20792,-0.39505 0.61129,-0.39505 0.35763,0 0.56348,0.3202 0.2495,0.38674 0.2495,1.23715 0,0.76308 -0.20584,1.16021 -0.20585,0.39506 -0.6113,0.39506 -0.35763,0 -0.58634,-0.34932 -0.22664,-0.34931 -0.22664,-1.20595 z m 0.31397,0 q 0,0.74228 0.14138,0.99595 0.14347,0.25159 0.36595,0.25159 0.21,0 0.35139,-0.25575 0.14139,-0.25574 0.14139,-0.99179 0,-0.74437 -0.14347,-0.99596 -0.14139,-0.25159 -0.36802,-0.25159 -0.20793,0 -0.34931,0.25575 -0.13931,0.25575 -0.13931,0.9918 z m 4.50363,0.43456 0.33267,0.10188 q -0.1102,0.51357 -0.38673,0.76724 -0.27446,0.25159 -0.66952,0.25159 -0.34723,0 -0.59466,-0.16842 -0.24535,-0.1705 -0.40337,-0.54476 -0.15595,-0.37426 -0.15595,-0.88368 0,-0.50317 0.15595,-0.85041 0.15802,-0.34931 0.42624,-0.52604 0.26822,-0.17882 0.59882,-0.17882 0.36179,0 0.62169,0.22664 0.25991,0.22456 0.36387,0.6612 l -0.32436,0.0936 q -0.16634,-0.63624 -0.66744,-0.63624 -0.24951,0 -0.43248,0.12891 -0.18297,0.12683 -0.29317,0.39713 -0.10812,0.2703 -0.10812,0.68407 0,0.62585 0.2204,0.93982 0.2204,0.31188 0.58634,0.31188 0.2703,0 0.46575,-0.19129 0.19753,-0.19337 0.26407,-0.58426 z m 1.88171,0.79635 q -0.15387,0.1601 -0.32021,0.24119 -0.16634,0.0811 -0.34515,0.0811 -0.28278,0 -0.45119,-0.1705 -0.16842,-0.1705 -0.16842,-0.45951 0,-0.19129 0.079,-0.33892 0.079,-0.14762 0.21624,-0.23079 0.13723,-0.0832 0.41585,-0.12268 0.37426,-0.0541 0.54892,-0.12891 l 0.002,-0.0956 q 0,-0.22663 -0.0811,-0.31812 -0.11435,-0.13307 -0.35139,-0.13307 -0.21416,0 -0.3202,0.0894 -0.10604,0.0873 -0.15594,0.3306 l -0.30149,-0.0499 q 0.0644,-0.35555 0.2599,-0.51773 0.19753,-0.16218 0.56348,-0.16218 0.28485,0 0.44703,0.10812 0.16218,0.10604 0.20377,0.26407 0.0437,0.15802 0.0437,0.46159 v 0.49901 q 0,0.52397 0.0187,0.6612 0.0208,0.13515 0.079,0.26407 h -0.32021 q -0.0478,-0.11436 -0.0624,-0.27238 z m -0.025,-0.83586 q -0.16842,0.0832 -0.5011,0.14139 -0.19337,0.0333 -0.2703,0.0769 -0.0769,0.0416 -0.1206,0.1206 -0.0416,0.0769 -0.0416,0.17881 0,0.15802 0.0977,0.25367 0.0977,0.0936 0.2703,0.0936 0.16426,0 0.29733,-0.0852 0.13515,-0.0852 0.20169,-0.22664 0.0665,-0.14347 0.0665,-0.41585 z m 0.66951,0.44912 0.30357,-0.0582 q 0.027,0.23287 0.14763,0.34723 0.12059,0.11228 0.3202,0.11228 0.19961,0 0.30773,-0.0977 0.1102,-0.0998 0.1102,-0.25159 0,-0.13099 -0.0936,-0.20377 -0.0645,-0.0499 -0.31189,-0.12475 -0.35763,-0.1102 -0.47822,-0.18713 -0.1206,-0.0769 -0.18713,-0.20585 -0.0665,-0.12891 -0.0665,-0.29317 0,-0.28278 0.1809,-0.45951 0.18089,-0.17674 0.50109,-0.17674 0.20169,0 0.35347,0.0728 0.15387,0.0728 0.23496,0.19544 0.0811,0.12268 0.11228,0.3514 l -0.29941,0.0499 q -0.0416,-0.36179 -0.39298,-0.36179 -0.19961,0 -0.29733,0.0811 -0.0977,0.079 -0.0977,0.20377 0,0.12267 0.0936,0.19337 0.0561,0.0416 0.33268,0.13307 0.3805,0.12267 0.49278,0.19544 0.11228,0.0707 0.17465,0.19545 0.0624,0.12268 0.0624,0.29318 0,0.31604 -0.20169,0.51149 -0.1996,0.19545 -0.54684,0.19545 -0.6508,0 -0.75476,-0.7111 z m 3.10223,-0.052 0.31604,0.0478 q -0.079,0.35347 -0.28694,0.53436 -0.20584,0.17882 -0.51149,0.17882 -0.38466,0 -0.62377,-0.2911 -0.23703,-0.29317 -0.23703,-0.84417 0,-0.57179 0.23911,-0.8712 0.24119,-0.30149 0.60922,-0.30149 0.35139,0 0.58634,0.29525 0.23496,0.29526 0.23496,0.85457 l -0.002,0.0998 h -1.35151 q 0.0187,0.37218 0.17258,0.56139 0.15386,0.18921 0.37426,0.18921 0.34515,0 0.48031,-0.45327 z m -1.00844,-0.60506 h 1.01051 q -0.0208,-0.28694 -0.12267,-0.42833 -0.14763,-0.20584 -0.37634,-0.20584 -0.20585,0 -0.35139,0.17258 -0.14555,0.17049 -0.16011,0.46159 z"
           id="path57" />
        <path
           style="font-weight:normal;-inkscape-font-specification:'Arial Condensed';text-align:center;text-anchor:middle"
           d="m 217.31301,636.37837 h -0.30773 v -2.38489 q -0.10604,0.12475 -0.28485,0.25575 -0.17882,0.12891 -0.32852,0.19544 v -0.36178 q 0.25366,-0.14555 0.44703,-0.35555 0.19545,-0.21001 0.27446,-0.40961 h 0.19961 z m 1.68626,0 h -0.30773 v -2.38489 q -0.10604,0.12475 -0.28485,0.25575 -0.17882,0.12891 -0.32852,0.19544 v -0.36178 q 0.25367,-0.14555 0.44704,-0.35555 0.19544,-0.21001 0.27446,-0.40961 h 0.1996 z m 2.4036,-0.35971 v 0.35971 h -1.65299 q -0.006,-0.21832 0.13099,-0.48863 0.13931,-0.2703 0.50733,-0.63832 0.43041,-0.42832 0.56348,-0.6612 0.13307,-0.23495 0.13307,-0.43664 0,-0.23287 -0.13723,-0.37842 -0.13515,-0.14763 -0.33476,-0.14763 -0.21416,0 -0.35139,0.15803 -0.13723,0.15802 -0.13723,0.45327 l -0.31604,-0.0395 q 0.0333,-0.43872 0.24743,-0.65911 0.21624,-0.22248 0.56763,-0.22248 0.38258,0 0.57803,0.25782 0.19752,0.25783 0.19752,0.58635 0,0.29109 -0.15386,0.55931 -0.15386,0.26615 -0.58427,0.7111 -0.27446,0.2807 -0.35555,0.38258 -0.079,0.10188 -0.12891,0.20377 z m 0.21,0.35971 0.6612,-1.14774 -0.61129,-1.06042 h 0.38258 l 0.27861,0.51773 q 0.0769,0.14347 0.12684,0.24743 0.0769,-0.14138 0.13723,-0.24327 l 0.30565,-0.52189 h 0.36594 l -0.62585,1.03962 0.67367,1.16854 h -0.37634 l -0.37218,-0.68615 -0.0977,-0.18506 -0.47614,0.87121 z m 3.01698,0 h -0.30773 v -2.38489 q -0.10604,0.12475 -0.28485,0.25575 -0.17882,0.12891 -0.32852,0.19544 v -0.36178 q 0.25366,-0.14555 0.44703,-0.35555 0.19545,-0.21001 0.27446,-0.40961 h 0.19961 z m 2.37865,-2.30172 -0.30565,0.0291 q -0.0437,-0.23496 -0.12891,-0.33476 -0.12268,-0.14555 -0.29525,-0.14555 -0.26823,0 -0.43041,0.33268 -0.13931,0.28694 -0.14139,0.84833 0.10605,-0.19961 0.26615,-0.30149 0.1601,-0.10396 0.33891,-0.10396 0.29733,0 0.51773,0.2703 0.22248,0.26822 0.22248,0.71942 0,0.30565 -0.11228,0.55515 -0.1102,0.24743 -0.28485,0.36595 -0.17466,0.11852 -0.38466,0.11852 -0.37842,0 -0.62377,-0.341 -0.24535,-0.34099 -0.24535,-1.13734 0,-0.88368 0.25158,-1.25794 0.25159,-0.37634 0.64457,-0.37634 0.28485,0 0.47614,0.19545 0.19337,0.19336 0.23496,0.56347 z m -1.25378,1.31408 q 0,0.3306 0.15594,0.53228 0.15594,0.19961 0.36179,0.19961 0.18089,0 0.32228,-0.18921 0.14347,-0.18921 0.14347,-0.51981 0,-0.32436 -0.14139,-0.50318 -0.14139,-0.17881 -0.34515,-0.17881 -0.19961,0 -0.34932,0.17881 -0.14762,0.17674 -0.14762,0.48031 z"
           id="path60" />
      </g>
      <g
         id="g83"
         transform="translate(-0.1882,-192.10329)">
        <rect
           style="fill:none;stroke:#ff0000;stroke-width:0.0961498;stroke-dasharray:none"
           id="rect78"
           width="6.1044235"
           height="3.1338501"
           x="-4.9229336"
           y="969.77838"
           ry="0" />
        <rect
           style="fill:none;stroke:#ff0000;stroke-width:0.0961498;stroke-dasharray:none"
           id="rect79"
           width="6.1044235"
           height="3.1338501"
           x="7.4690342"
           y="969.77838"
           ry="0" />
        <rect
           style="fill:none;stroke:#ff0000;stroke-width:0.0961498;stroke-dasharray:none"
           id="rect80"
           width="6.1044235"
           height="3.1338501"
           x="19.876902"
           y="969.77838"
           ry="0" />
      </g>
      <path
         id="rect99"
         style="fill:none;stroke:#ff0000;stroke-width:0.0491817"
         d="m 38.881283,758.5465 v 4.76921 h -1.24282 v 7.95094 h 7.95094 v -7.95094 h -1.242818 v -4.76921 z"
         sodipodi:nodetypes="ccccccccc" />
    </g>
    <path
       id="rect98"
       style="fill:none;stroke:#ff0000;stroke-width:0.1;stroke-dasharray:none"
       d="m 14.938901,818.80446 v -3.0856 h 4.47311 v -12.17651 l -20.1909,6.56724 -19.65886,-6.56724 v 12.17651 h 4.47311 v 3.0856 h 6.10402 v -3.0856 h 18.6955 v 3.0856 z"
       sodipodi:nodetypes="cccccccccccccc" />
    <g
       id="g2"
       transform="translate(20.19314,-19.657039)">
      <rect
         style="fill:none;stroke:#ff0000;stroke-width:0.0548535;stroke-dasharray:none"
         id="rect100"
         width="7.4630671"
         height="12.464818"
         x="-12.852889"
         y="-837.43066"
         transform="scale(-1)" />
      <ellipse
         style="fill:none;stroke:#ff0000;stroke-width:0.139208;stroke-dasharray:none"
         id="path129"
         cx="9.0059557"
         cy="831.1983"
         rx="1.4303962"
         ry="1.430396" />
    </g>
    <g
       id="g1"
       transform="translate(14.564079,-4.556859)">
      <rect
         style="fill:none;stroke:#ff0000;stroke-width:0.0548535;stroke-dasharray:none"
         id="rect91"
         width="7.4630671"
         height="12.464818"
         x="-21.118271"
         y="-837.56073"
         transform="scale(-1)" />
      <ellipse
         style="fill:none;stroke:#ff0000;stroke-width:0.139208;stroke-dasharray:none"
         id="ellipse129"
         cx="17.512608"
         cy="831.32837"
         rx="1.4303962"
         ry="1.430396" />
    </g>
    <path
       id="rect81"
       style="fill:none;stroke:#ff0000;stroke-width:0.101832"
       d="m -21.450179,823.4713 v 14.00328 h 9.46247 v -7.34477 h 1.43764 v -3.53725 h 4.02249 v 3.53725 h 1.43764 v 7.34477 h 9.46247 V 823.4713 Z"
       sodipodi:nodetypes="ccccccccccccc" />
    <g
       id="g152"
       transform="translate(-36.97325,-148.20999)"
       style="stroke:#ff0000">
      <ellipse
         style="fill:none;stroke:#ff0000;stroke-width:0.139208;stroke-dasharray:none"
         id="ellipse151"
         cx="19.724005"
         cy="979.47668"
         rx="1.4303962"
         ry="1.430396" />
      <ellipse
         style="fill:none;stroke:#ff0000;stroke-width:0.139208;stroke-dasharray:none"
         id="ellipse152"
         cx="38.394928"
         cy="979.47668"
         rx="1.4303962"
         ry="1.430396" />
    </g>
  </g>
</svg>
